<svg width="51" height="51" viewBox="0 0 51 51" fill="none" xmlns="http://www.w3.org/2000/svg">
<path d="M25.5 3.98438C21.2446 3.98438 17.0848 5.24624 13.5466 7.61041C10.0083 9.97458 7.25063 13.3349 5.62216 17.2663C3.9937 21.1978 3.56762 25.5239 4.3978 29.6975C5.22799 33.8711 7.27715 37.7048 10.2862 40.7138C13.2952 43.7229 17.1289 45.772 21.3025 46.6022C25.4761 47.4324 29.8022 47.0063 33.7337 45.3778C37.6651 43.7494 41.0254 40.9917 43.3896 37.4534C45.7538 33.9152 47.0156 29.7554 47.0156 25.5C47.0093 19.7956 44.7405 14.3267 40.7069 10.2931C36.6733 6.25955 31.2044 3.9907 25.5 3.98438ZM25.5 42.2344C22.1903 42.2344 18.9548 41.2529 16.2029 39.4141C13.4509 37.5753 11.306 34.9618 10.0395 31.904C8.77288 28.8462 8.44148 25.4814 9.08718 22.2353C9.73288 18.9891 11.3267 16.0074 13.667 13.667C16.0074 11.3267 18.9891 9.73287 22.2353 9.08717C25.4814 8.44147 28.8462 8.77287 31.904 10.0395C34.9618 11.306 37.5753 13.4509 39.4141 16.2029C41.2529 18.9548 42.2344 22.1903 42.2344 25.5C42.2296 29.9368 40.465 34.1905 37.3278 37.3277C34.1905 40.465 29.9368 42.2296 25.5 42.2344ZM39.0469 25.5C39.0469 26.134 38.795 26.7421 38.3467 27.1904C37.8984 27.6388 37.2903 27.8906 36.6563 27.8906H25.5C24.866 27.8906 24.2579 27.6388 23.8096 27.1904C23.3613 26.7421 23.1094 26.134 23.1094 25.5V14.3438C23.1094 13.7097 23.3613 13.1017 23.8096 12.6533C24.2579 12.205 24.866 11.9531 25.5 11.9531C26.134 11.9531 26.7421 12.205 27.1904 12.6533C27.6388 13.1017 27.8906 13.7097 27.8906 14.3438V23.1094H36.6563C37.2903 23.1094 37.8984 23.3612 38.3467 23.8096C38.795 24.2579 39.0469 24.866 39.0469 25.5Z" fill="#F83545"/>
</svg>
