<svg width="434" height="134" viewBox="0 0 434 134" fill="none" xmlns="http://www.w3.org/2000/svg">
<g opacity="0.1">
<path d="M228.193 13.1871H228.947L228.9 14.0904C228.876 14.5831 228.853 15.0484 228.853 15.5411C228.853 22.9316 234.037 28.9534 240.399 28.9534C245.96 28.9534 250.743 24.3549 251.757 18.0046L251.898 17.1287L252.652 17.375C256.564 18.6068 260.475 20.1396 264.316 21.9462L265.047 22.2746L264.693 23.0684C263.939 24.875 263.515 26.9005 263.515 28.9534C263.515 36.3439 268.699 42.3658 275.061 42.3658C279.067 42.3658 282.72 40.0118 284.864 36.0702L285.265 35.3037L285.877 35.8512C289.058 38.5337 292.122 41.4351 294.949 44.4187L295.538 45.0482L294.926 45.6778C292.381 48.2234 290.92 51.9186 290.92 55.8055C290.92 63.1959 296.104 69.2178 302.466 69.2178C305.247 69.2178 307.909 68.0682 310.007 65.9331L310.619 65.331L311.067 66.0974C313.258 69.8473 315.238 73.7068 316.958 77.5663L317.311 78.3601L316.605 78.7159C312.387 80.8236 309.677 85.6684 309.677 91.006C309.677 98.3965 314.861 104.418 321.223 104.418C322.425 104.418 323.603 104.227 324.758 103.789L325.488 103.515L325.677 104.391C326.69 109.236 327.42 113.889 327.915 118.652L328.009 119.5L327.279 119.582C321.364 120.294 316.911 126.015 316.911 133.077V133.925H289.082V133.077C289.082 92.2925 260.522 59.0901 225.389 59.0901H224.658V13.105H225.389C226.261 13.105 227.156 13.105 228.146 13.1323L228.193 13.1871Z" fill="#1D1D1B"/>
<path d="M105.943 132.283H106.674C106.98 124.975 112.211 119.145 118.573 119.145C118.738 119.145 118.903 119.145 119.068 119.145C118.621 123.387 118.385 127.794 118.385 132.256H119.822C119.846 127.849 120.082 123.497 120.529 119.309C125.973 120.349 130.214 125.714 130.473 132.256H131.204C130.921 125.303 126.444 119.555 120.624 118.488C121.048 114.245 121.731 109.92 122.603 105.65C123.663 105.979 124.747 106.115 125.831 106.115C132.995 106.115 138.838 99.3272 138.838 91.0061C138.838 85.3948 136.081 80.1393 131.793 77.5937C133.301 74.2817 134.974 70.9971 136.788 67.8219C139.051 69.8201 141.737 70.8876 144.612 70.8876C151.775 70.8876 157.619 64.0993 157.619 55.7782C157.619 51.7545 156.229 47.8676 153.754 45.0483C156.158 42.5301 158.774 40.0939 161.507 37.7126C163.958 41.6815 167.893 44.0081 172.087 44.0081C179.251 44.0081 185.094 37.2199 185.094 28.8987C185.094 26.9006 184.764 24.9572 184.105 23.1506C187.357 21.6178 190.726 20.3039 194.166 19.1816C195.604 25.8331 200.835 30.5958 206.773 30.5958C213.937 30.5958 219.78 23.8075 219.78 15.4864C219.78 15.2401 219.78 15.0211 219.78 14.8021C220.205 14.8021 220.605 14.8021 221.029 14.8021V57.4205C185.778 57.8858 157.006 91.3345 156.629 132.256H158.067C158.467 91.8272 186.885 59.0902 221.76 59.0902H222.49V13.105H221.76C220.959 13.105 220.134 13.105 219.333 13.1324H219.262C218.296 6.15252 213.065 0.787598 206.797 0.787598C199.822 0.787598 194.166 7.38426 194.166 15.459C194.166 16.116 194.214 16.7729 194.284 17.4025C194.261 17.4025 194.237 17.4025 194.214 17.4025C190.491 18.6068 186.791 20.0575 183.233 21.7272H183.186C181.018 17.2108 176.894 14.1452 172.158 14.1452C165.183 14.1452 159.528 20.7419 159.528 28.8166C159.528 31.3896 160.117 33.8257 161.13 35.9334C161.13 35.9334 161.083 35.9607 161.083 35.9881C158.114 38.5063 155.239 41.2162 152.529 44.0629L152.482 44.1176C150.338 42.1742 147.651 40.9972 144.706 40.9972C137.731 40.9972 132.076 47.5939 132.076 55.6687C132.076 59.8292 133.584 63.6066 135.987 66.2617C135.987 66.2891 135.94 66.3164 135.94 66.3438C133.914 69.8474 132.052 73.4879 130.403 77.101C130.403 77.101 130.403 77.1284 130.379 77.1558C128.989 76.5536 127.504 76.1978 125.949 76.1978C118.974 76.1978 113.319 82.7944 113.319 90.8692C113.319 97.1374 116.688 102.475 121.448 104.583C121.448 104.583 121.448 104.61 121.448 104.637C120.529 109.044 119.799 113.588 119.304 118.132H118.738C111.976 118.132 106.438 124.345 106.108 132.119L105.943 132.283ZM218.414 13.2145H218.084L218.131 13.6525C210.261 13.9536 202.602 15.2948 195.274 17.5667L195.227 17.1561L194.873 17.2656C194.803 16.6908 194.779 16.116 194.779 15.5412C194.779 7.90435 200.128 1.69086 206.702 1.69086C212.57 1.69086 217.471 6.67258 218.437 13.2145H218.414ZM195.392 18.4152C202.697 16.1433 210.331 14.8295 218.202 14.501C218.225 14.8568 218.249 15.2127 218.249 15.5685C218.249 22.959 213.065 28.9809 206.702 28.9809C201.306 28.9809 196.57 24.5466 195.415 18.4152H195.392ZM165.371 17.4846L171.286 28.9261C168.105 31.0064 165.018 33.2783 162.049 35.7418L161.884 35.3586L161.578 35.6049C160.659 33.6341 160.093 31.3896 160.093 28.9809C160.093 24.2181 162.19 20.0028 165.348 17.5119L165.371 17.4846ZM182.385 22.1652L182.078 22.3294L182.243 22.7126C178.709 24.4371 175.245 26.3531 171.922 28.5155L165.984 17.074C167.751 15.8423 169.825 15.1306 172.016 15.1306C176.446 15.1306 180.334 17.9773 182.361 22.1926L182.385 22.1652ZM178.072 40.3677L172.276 29.1998C175.598 27.0648 179.015 25.1488 182.549 23.4517C183.233 25.1761 183.586 27.0101 183.586 28.9261C183.586 33.7436 181.371 37.9863 178.072 40.3403V40.3677ZM162.449 36.4261C165.419 33.9626 168.482 31.6907 171.663 29.6104L177.46 40.7782C175.834 41.791 173.996 42.3658 172.04 42.3658C168.199 42.3658 164.617 40.1487 162.449 36.4261ZM144.588 41.9552C147.298 41.9552 149.819 43.0228 151.822 44.8293L151.563 45.1304L151.846 45.4041C146.19 51.4534 141.124 58.269 136.765 65.6595L136.506 65.3584L136.294 65.7142C134.079 63.2234 132.688 59.6924 132.688 55.8329C132.688 48.1961 138.037 41.9826 144.612 41.9826L144.588 41.9552ZM137.307 66.2069C141.666 58.8165 146.732 52.0008 152.411 45.9242C154.815 48.4698 156.158 52.0556 156.158 55.7782C156.158 63.1686 150.974 69.1905 144.612 69.1905C141.949 69.1905 139.357 68.123 137.33 66.1796L137.307 66.2069ZM125.808 77.1832C127.245 77.1832 128.635 77.4842 129.908 78.0591L129.766 78.4423L130.096 78.5791C126.585 86.4623 123.828 94.8929 121.896 103.679L121.543 103.515L121.472 103.898C117.042 101.873 113.884 96.8911 113.884 91.0334C113.884 83.3966 119.233 77.1832 125.808 77.1832ZM122.603 103.926C124.512 95.1666 127.269 86.7908 130.78 78.9076C134.809 81.1521 137.377 85.9148 137.377 91.0334C137.377 98.4239 132.193 104.446 125.831 104.446C124.7 104.446 123.64 104.254 122.626 103.898L122.603 103.926Z" fill="#1D1D1B"/>
</g>
<path d="M37.9143 22.1929H19.4166V98.4516H37.9143V22.1929Z" fill="#0B2241"/>
<path d="M99.9344 22.1927V72.0373C99.8559 80.6321 99.7381 85.4861 99.581 86.5992C98.8741 92.4295 96.3527 95.7689 91.6871 97.1649C89.0479 97.9587 69.6077 98.4514 69.6077 98.4514H37.9142V115.751H69.6077C95.1745 115.696 101.749 114.738 108.3 110.331C115.934 105.322 118.338 98.1229 118.338 80.4679V22.1653H99.9344V22.1927Z" fill="#0B2241"/>
<path d="M210.096 22.1929V39.5742H226.119V22.1929H210.096Z" fill="#F5304E"/>
<path d="M200.67 22.1929V39.5468H188.747V114.765H170.343V39.5468H132.806V22.1929H200.67Z" fill="#0B2241"/>
<path d="M287.433 22.1929H262.455L216.812 114.765H237.477L246.337 96.4534H285.005L277.842 81.4809H253.383L274.779 37.2202L312.292 114.793H332.345L287.409 22.2202L287.433 22.1929Z" fill="#0B2241"/>
<path d="M18.3327 115.75H0V132.776H18.3327V115.75Z" fill="#F83545"/>
<path d="M330.931 45.6509C331.355 50.7421 334.56 51.8096 336.21 51.8096C338.943 51.8096 341.488 49.3735 341.488 45.9793C341.488 41.6819 338.33 40.7239 335.267 39.5743C333.123 38.8352 328.528 37.2476 328.528 31.4721C328.457 26.0524 332.345 23.0415 336.351 23.0415C339.626 23.0415 343.397 25.1492 343.821 30.952H340.899C340.569 28.9539 339.721 25.9429 336.233 25.9429C333.594 25.9429 331.426 28.0232 331.426 31.1984C331.379 34.921 333.995 35.8243 337.977 37.4119C340.475 38.5341 344.386 40.1491 344.386 45.7604C344.386 50.7695 341.134 54.7384 336.233 54.7384C331.827 54.7384 328.151 51.5085 327.986 45.6782H330.931V45.6509Z" fill="#0B2241"/>
<path d="M349.146 54.1633H345.989L356.993 23.5613H359.844L370.731 54.1633H367.526L364.463 45.5684H352.186L349.17 54.1633H349.146ZM358.289 27.4207L353.058 42.7491H363.567L358.289 27.4207Z" fill="#0B2241"/>
<path d="M373.629 54.1633V23.5613H377.753L387.508 49.2363L397.217 23.5613H401.34V54.1633H398.56L398.63 26.9554L388.404 54.1633H386.519L376.268 26.9554L376.339 54.1633H373.606H373.629Z" fill="#0B2241"/>
<path d="M428.203 31.4993C427.378 30.1854 426.389 29.0632 425.258 28.1873C423.537 26.8187 421.487 26.0249 419.131 26.0249C413.358 26.0249 408.339 31.1435 408.339 38.8077C408.339 46.4719 413.381 51.6999 419.154 51.6999C421.935 51.6999 424.386 50.5777 426.2 48.9353C428.062 47.2383 429.334 44.9117 429.758 42.5303H416.657V39.7109H433.175C433.151 41.4901 432.774 43.7346 431.997 45.6233C429.711 51.3715 424.456 54.7109 419.154 54.7109C411.473 54.7109 405.37 47.8405 405.37 38.7803C405.37 29.7201 411.567 22.9866 419.178 22.9866C424.527 22.9866 429.475 26.4628 431.526 31.4719H428.179L428.203 31.4993Z" fill="#0B2241"/>
<path d="M434 59.6924H326.973V62.4296H434V59.6924Z" fill="#F5304E"/>
</svg>
