<svg width="41" height="41" viewBox="0 0 41 41" fill="none" xmlns="http://www.w3.org/2000/svg">
<path d="M17.8633 1.21077C18.4716 0.778865 19.1796 0.532647 19.9102 0.498883C20.6408 0.465119 21.3661 0.645101 22.0073 1.01926L22.3013 1.21077L38.3013 12.5585C38.8026 12.9139 39.2219 13.3851 39.5281 13.9371C39.8342 14.489 40.0192 15.1074 40.0693 15.746L40.0833 16.0992V36.2392C40.0836 37.3129 39.7025 38.347 39.0163 39.1342C38.3302 39.9215 37.3896 40.4037 36.3833 40.4842L36.0833 40.4949H4.08333C3.07418 40.4952 2.10219 40.0897 1.36223 39.3597C0.622269 38.6296 0.169015 37.629 0.0933285 36.5584L0.0833282 36.2392V16.0992C0.0833386 15.4585 0.219317 14.8261 0.481122 14.2492C0.742926 13.6722 1.1238 13.1655 1.59533 12.767L1.86533 12.5585L17.8633 1.21077ZM36.0833 18.9356L21.7473 29.1067C21.2545 29.4562 20.6756 29.6427 20.0833 29.6427C19.4911 29.6427 18.9121 29.4562 18.4193 29.1067L4.08333 18.9335V36.2392H36.0833V18.9356ZM20.0833 4.75149L5.68933 14.9608L20.0833 25.1702L34.4773 14.9608L20.0833 4.75149Z" fill="#F83545"/>
</svg>
