<svg width="40" height="40" viewBox="0 0 40 40" fill="none" xmlns="http://www.w3.org/2000/svg">
<path d="M24.0544 2.78562C24.1087 2.58256 24.2025 2.3922 24.3304 2.2254C24.4584 2.0586 24.6179 1.91864 24.7999 1.81351C24.9819 1.70839 25.1829 1.64016 25.3913 1.61272C25.5997 1.58528 25.8114 1.59918 26.0145 1.65361C28.9806 2.42752 31.6869 3.97812 33.8545 6.14573C36.0221 8.31333 37.5728 11.0196 38.3467 13.9857C38.4011 14.1888 38.415 14.4005 38.3876 14.6089C38.3601 14.8173 38.2919 15.0183 38.1868 15.2003C38.0816 15.3823 37.9417 15.5418 37.7749 15.6697C37.6081 15.7976 37.4177 15.8914 37.2147 15.9458C37.0795 15.9813 36.9404 15.9995 36.8006 15.9998C36.4481 15.9997 36.1054 15.8833 35.8258 15.6684C35.5462 15.4536 35.3454 15.1524 35.2546 14.8117C34.6234 12.3904 33.3579 10.1811 31.5885 8.41172C29.8191 6.64233 27.6098 5.37682 25.1884 4.74564C24.9852 4.69154 24.7946 4.59791 24.6276 4.47009C24.4606 4.34227 24.3204 4.18278 24.2151 4.00074C24.1098 3.8187 24.0414 3.61768 24.0138 3.40917C23.9862 3.20067 24 2.98878 24.0544 2.78562ZM23.5884 11.1457C26.3465 11.8817 28.1185 13.6537 28.8545 16.4118C28.9453 16.7524 29.1461 17.0536 29.4257 17.2684C29.7052 17.4833 30.048 17.5998 30.4005 17.5998C30.5403 17.5995 30.6794 17.5813 30.8145 17.5458C31.0176 17.4915 31.208 17.3977 31.3748 17.2698C31.5416 17.1418 31.6815 16.9823 31.7867 16.8003C31.8918 16.6183 31.96 16.4173 31.9875 16.2089C32.0149 16.0005 32.001 15.7888 31.9466 15.5857C30.9225 11.7537 28.2465 9.07768 24.4144 8.05367C24.0044 7.94414 23.5677 8.00197 23.2003 8.21445C22.8329 8.42693 22.5649 8.77666 22.4554 9.18668C22.3459 9.59671 22.4037 10.0335 22.6162 10.4008C22.8287 10.7682 23.1784 11.0362 23.5884 11.1457ZM39.9767 30.2159C39.6201 32.926 38.2891 35.4136 36.2324 37.2141C34.1758 39.0146 31.534 40.0049 28.8005 40C12.9202 40 1.80976e-05 27.0799 1.80976e-05 11.1997C-0.00488195 8.46626 0.985409 5.8245 2.78593 3.76782C4.58646 1.71115 7.07408 0.380212 9.78419 0.0235955C10.4695 -0.0600835 11.1635 0.0801202 11.7626 0.423277C12.3617 0.766433 12.8337 1.29414 13.1082 1.92761L17.3323 11.3577V11.3817C17.5425 11.8666 17.6293 12.396 17.585 12.9227C17.5406 13.4493 17.3666 13.9568 17.0783 14.3997C17.0423 14.4537 17.0043 14.5037 16.9643 14.5537L12.8002 19.4898C14.2983 22.5338 17.4823 25.6898 20.5664 27.1919L25.4345 23.0498C25.4822 23.0096 25.5323 22.9722 25.5845 22.9378C26.0271 22.6426 26.5363 22.4624 27.066 22.4135C27.5958 22.3646 28.1294 22.4486 28.6185 22.6578L28.6445 22.6698L38.0667 26.8919C38.7013 27.1654 39.2303 27.637 39.5746 28.2362C39.9188 28.8354 40.0599 29.5299 39.9767 30.2159ZM36.8006 29.8159H36.7786L27.3785 25.6058L22.5084 29.7479C22.4613 29.788 22.4119 29.8254 22.3604 29.8599C21.8999 30.1671 21.3676 30.3496 20.8155 30.3896C20.2633 30.4295 19.7103 30.3256 19.2103 30.0879C15.4643 28.2779 11.7302 24.5718 9.91819 20.8658C9.67824 20.3695 9.57057 19.8196 9.60561 19.2695C9.64065 18.7194 9.81722 18.1876 10.1182 17.7258C10.152 17.6715 10.1902 17.62 10.2322 17.5718L14.4003 12.6297L10.2002 3.22963C10.1994 3.22165 10.1994 3.21361 10.2002 3.20563C8.26067 3.45863 6.47988 4.40997 5.19133 5.88148C3.90278 7.353 3.19483 9.24377 3.20007 11.1997C3.20748 17.987 5.90705 24.4943 10.7065 29.2936C15.5059 34.093 22.0131 36.7925 28.8005 36.7999C30.7553 36.8067 32.6455 36.1012 34.1179 34.8154C35.5903 33.5297 36.544 31.7517 36.8006 29.8139V29.8159Z" fill="#F83545"/>
</svg>
