<svg width="106" height="110" viewBox="0 0 106 110" fill="none" xmlns="http://www.w3.org/2000/svg">
<mask id="mask0_123_9" style="mask-type:luminance" maskUnits="userSpaceOnUse" x="0" y="0" width="106" height="110">
<path d="M0.891296 0.953125H105.78V109.394H0.891296V0.953125Z" fill="white"/>
</mask>
<g mask="url(#mask0_123_9)">
<path d="M103.681 39.9924H95.2909V5.29161C95.2875 2.89821 93.4128 0.956655 91.0943 0.953125H15.574C13.2589 0.956655 11.3809 2.89821 11.3809 5.29161V39.9924H2.98785C2.71127 39.9924 2.44152 40.0489 2.18542 40.1583C1.92933 40.2678 1.70055 40.4231 1.50592 40.6278C1.30788 40.8326 1.15763 41.0656 1.05178 41.3303C0.942515 41.5951 0.891296 41.874 0.891296 42.1599V59.5103C0.891296 59.7998 0.942515 60.0751 1.05178 60.3399C1.15763 60.6082 1.30788 60.8411 1.50592 61.0459C1.70055 61.2471 1.92933 61.406 2.18542 61.5154C2.44152 61.6248 2.71127 61.6813 2.98785 61.6813H11.3809V81.1992C11.3809 81.7817 11.6097 82.3394 12.0126 82.7454C11.596 83.6244 11.3843 84.5563 11.3809 85.5377V89.8726C11.3843 93.4663 14.1979 96.3751 17.674 96.3786V102.885C17.6774 106.478 20.491 109.387 23.9671 109.394H32.3567C35.8327 109.387 38.6463 106.478 38.6498 102.885V96.3786H68.0186V102.885C68.0254 106.478 70.839 109.387 74.3117 109.394H82.7047C86.1773 109.387 88.9944 106.478 88.9978 102.885V96.3786C92.4738 96.3751 95.2875 93.4663 95.2909 89.8726V85.5377C95.2875 84.5669 95.0689 83.6138 94.6592 82.7454C95.0792 82.3218 95.2909 81.8064 95.2909 81.1992V61.6813H103.681C103.96 61.6813 104.227 61.6248 104.486 61.5154C104.742 61.406 104.968 61.2471 105.166 61.0459C105.364 60.8411 105.514 60.6082 105.62 60.3399C105.726 60.0751 105.78 59.7998 105.78 59.5103V42.1599C105.78 41.874 105.726 41.5951 105.62 41.3303C105.514 41.0656 105.364 40.8326 105.166 40.6278C104.968 40.4231 104.742 40.2678 104.486 40.1583C104.227 40.0489 103.96 39.9924 103.681 39.9924ZM88.9978 79.0282V65.0102L91.0943 63.5629V79.0282H88.9978ZM30.2601 79.0282V72.5222C30.2601 71.9256 30.0553 71.4138 29.6455 70.9902L25.449 66.6517C25.0392 66.2281 24.5441 66.0163 23.9671 66.0163H21.8671V29.148C21.8739 25.5579 24.6875 22.6455 28.1636 22.642H78.5082C81.9842 22.6455 84.7979 25.5579 84.8013 29.148V66.0163H82.7047C82.1242 66.0163 81.6291 66.2281 81.2228 66.6517L77.0263 70.9902C76.6165 71.4138 76.4116 71.9256 76.4116 72.5222V79.0282H30.2601ZM15.574 79.0282V63.5629L17.674 65.0102V79.0282H15.574ZM21.8671 70.3548H23.0963L26.0636 73.4224V79.0282H21.8671V70.3548ZM80.6082 73.4224L83.572 70.3548H84.8013V79.0282H80.6082V73.4224ZM15.574 5.29161H91.0943V58.3489L88.9978 59.7962V29.148C88.991 23.1609 84.2993 18.3106 78.5082 18.3035H28.1636C22.3724 18.3106 17.6808 23.1609 17.674 29.148V59.7962L15.574 58.3489V5.29161ZM5.08782 57.3428V44.3309H11.3809V57.3428H5.08782ZM34.4566 102.885C34.4532 103.174 34.402 103.449 34.2962 103.714C34.1869 103.982 34.0367 104.215 33.8386 104.42C33.644 104.621 33.4152 104.78 33.1591 104.89C32.903 104.999 32.6367 105.056 32.3567 105.056H23.9671C23.6871 105.056 23.4207 104.999 23.1646 104.89C22.9085 104.78 22.6798 104.621 22.4851 104.42C22.2871 104.215 22.1368 103.982 22.0276 103.714C21.9217 103.449 21.8705 103.174 21.8671 102.885V96.3786H34.4566V102.885ZM84.8013 102.885C84.8013 103.174 84.7466 103.449 84.6408 103.714C84.5349 103.982 84.3847 104.215 84.1866 104.42C83.9886 104.621 83.7632 104.78 83.5071 104.89C83.251 104.999 82.9813 105.056 82.7047 105.056H74.3117C74.0351 105.056 73.7688 104.999 73.5092 104.89C73.2532 104.78 73.0278 104.621 72.8297 104.42C72.6351 104.215 72.4815 103.982 72.3756 103.714C72.2697 103.449 72.2151 103.174 72.2151 102.885V96.3786H84.8013V102.885ZM91.0943 89.8726C91.0943 90.1621 91.0431 90.4374 90.9339 90.7022C90.828 90.967 90.6778 91.2035 90.4797 91.4047C90.2851 91.6094 90.0563 91.7648 89.8002 91.8777C89.5441 91.9872 89.2744 92.0436 88.9978 92.0436H17.674C17.394 92.0436 17.1276 91.9872 16.8715 91.8777C16.612 91.7648 16.3867 91.6094 16.192 91.4047C15.994 91.2035 15.8438 90.967 15.7345 90.7022C15.6286 90.4374 15.574 90.1621 15.574 89.8726V85.5377C15.574 85.2482 15.6286 84.9729 15.7345 84.7081C15.8438 84.4398 15.994 84.2068 16.192 84.0021C16.3867 83.8009 16.612 83.642 16.8715 83.5326C17.1276 83.4231 17.394 83.3667 17.674 83.3667H88.9978C89.2744 83.3667 89.5441 83.4231 89.8002 83.5326C90.0563 83.642 90.2851 83.8009 90.4797 84.0021C90.6778 84.2068 90.828 84.4398 90.9339 84.7081C91.0431 84.9729 91.0943 85.2482 91.0943 85.5377V89.8726ZM101.584 57.3428H95.2909V44.3309H101.584V57.3428Z" fill="#0B2141"/>
</g>
<path d="M35.8054 61.6813H70.8664C71.1532 61.6813 71.4332 61.6177 71.6961 61.5048L81.4379 57.1663C81.8204 56.9933 82.1277 56.7286 82.3599 56.365C82.5886 56.0049 82.7047 55.606 82.7047 55.1718V31.319C82.7423 28.9644 80.9326 27.0264 78.6585 26.9805H28.0133C25.7358 27.0264 23.9295 28.9644 23.9671 31.319V55.1718C23.9671 55.606 24.0832 56.0049 24.3119 56.365C24.5407 56.7286 24.8514 56.9933 25.2339 57.1663L34.9757 61.5048C35.2352 61.6213 35.5186 61.6813 35.8054 61.6813ZM28.0133 31.319H78.5082V53.7456L70.4327 57.3428H63.9928L65.1913 55.1718H71.1669C71.4434 55.1718 71.7132 55.1188 71.9693 55.0094C72.2254 54.9 72.4542 54.7411 72.6488 54.5399C72.8468 54.3352 72.9971 54.1022 73.1029 53.8339C73.2122 53.5691 73.2634 53.2938 73.2634 53.0043C73.2634 52.7184 73.2122 52.4395 73.1029 52.1747C72.9971 51.91 72.8468 51.6735 72.6488 51.4723C72.4542 51.2675 72.2254 51.1122 71.9693 51.0028C71.7132 50.8898 71.4434 50.8368 71.1669 50.8368H58.5807C58.3007 50.8368 58.0344 50.8898 57.7783 51.0028C57.5188 51.1122 57.2934 51.2675 57.0954 51.4723C56.9007 51.6735 56.7471 51.91 56.6412 52.1747C56.5354 52.4395 56.4807 52.7184 56.4807 53.0043C56.4807 53.2938 56.5354 53.5691 56.6412 53.8339C56.7471 54.1022 56.9007 54.3352 57.0954 54.5399C57.2934 54.7411 57.5188 54.9 57.7783 55.0094C58.0344 55.1188 58.3007 55.1718 58.5807 55.1718H60.3597L59.1612 57.3428H43.0136L44.2121 55.1718H50.1877C50.4676 55.1718 50.734 55.1188 50.9901 55.0094C51.2496 54.9 51.475 54.7411 51.673 54.5399C51.8676 54.3352 52.0213 54.1022 52.1271 53.8339C52.233 53.5691 52.2876 53.2938 52.2876 53.0043C52.2876 52.7184 52.233 52.4395 52.1271 52.1747C52.0213 51.91 51.8676 51.6735 51.673 51.4723C51.475 51.2675 51.2496 51.1122 50.9901 51.0028C50.734 50.8898 50.4676 50.8368 50.1877 50.8368H37.6015C37.3249 50.8368 37.0552 50.8898 36.7991 51.0028C36.543 51.1122 36.3142 51.2675 36.1196 51.4723C35.9215 51.6735 35.7713 51.91 35.6654 52.1747C35.5562 52.4395 35.5049 52.7184 35.5049 53.0043C35.5049 53.2938 35.5562 53.5691 35.6654 53.8339C35.7713 54.1022 35.9215 54.3352 36.1196 54.5399C36.3142 54.7411 36.543 54.9 36.7991 55.0094C37.0552 55.1188 37.3249 55.1718 37.6015 55.1718H39.3805L38.182 57.3428H36.2357L28.1533 53.7421L28.0133 31.319ZM47.0428 85.5377H38.6498C38.3732 85.5377 38.1034 85.5906 37.8473 85.7C37.5913 85.8095 37.3625 85.9683 37.1678 86.1695C36.9698 86.3743 36.8196 86.6108 36.7137 86.8756C36.6079 87.1403 36.5532 87.4157 36.5532 87.7051C36.5532 87.9911 36.6079 88.2699 36.7137 88.5347C36.8196 88.7995 36.9698 89.036 37.1678 89.2372C37.3625 89.4419 37.5913 89.5973 37.8473 89.7067C38.1034 89.8197 38.3732 89.8726 38.6498 89.8726H47.0428C47.3194 89.8726 47.5892 89.8197 47.8452 89.7067C48.1013 89.5973 48.3301 89.4419 48.5247 89.2372C48.7228 89.036 48.873 88.7995 48.9789 88.5347C49.0882 88.2699 49.1394 87.9911 49.1394 87.7051C49.1394 87.4157 49.0882 87.1403 48.9789 86.8756C48.873 86.6108 48.7228 86.3743 48.5247 86.1695C48.3301 85.9683 48.1013 85.8095 47.8452 85.7C47.5892 85.5906 47.3194 85.5377 47.0428 85.5377ZM68.0186 85.5377H59.629C59.349 85.5377 59.0826 85.5906 58.8265 85.7C58.5705 85.8095 58.3417 85.9683 58.1436 86.1695C57.949 86.3743 57.7953 86.6108 57.6895 86.8756C57.5836 87.1403 57.5324 87.4157 57.5324 87.7051C57.5324 87.9911 57.5836 88.2699 57.6895 88.5347C57.7953 88.7995 57.949 89.036 58.1436 89.2372C58.3417 89.4419 58.5705 89.5973 58.8265 89.7067C59.0826 89.8197 59.349 89.8726 59.629 89.8726H68.0186C68.2986 89.8726 68.5649 89.8197 68.821 89.7067C69.0805 89.5973 69.3059 89.4419 69.504 89.2372C69.6986 89.036 69.8522 88.7995 69.9581 88.5347C70.0639 88.2699 70.1186 87.9911 70.1186 87.7051C70.1186 87.4157 70.0639 87.1403 69.9581 86.8756C69.8522 86.6108 69.6986 86.3743 69.504 86.1695C69.3059 85.9683 69.0805 85.8095 68.821 85.7C68.5649 85.5906 68.2986 85.5377 68.0186 85.5377ZM70.1186 72.5222H36.5532C36.2732 72.5222 36.0069 72.5787 35.7508 72.6881C35.4947 72.7975 35.2659 72.9564 35.0713 73.1576C34.8732 73.3624 34.723 73.5953 34.6137 73.8636C34.5079 74.1284 34.4567 74.4037 34.4567 74.6932C34.4567 74.9791 34.5079 75.258 34.6137 75.5228C34.723 75.7875 34.8732 76.0241 35.0713 76.2253C35.2659 76.43 35.4947 76.5853 35.7508 76.6948C36.0069 76.8077 36.2732 76.8607 36.5532 76.8607H70.1186C70.3952 76.8607 70.6649 76.8077 70.921 76.6948C71.1771 76.5853 71.4059 76.43 71.6005 76.2253C71.7986 76.0241 71.9488 75.7875 72.0546 75.5228C72.1605 75.258 72.2151 74.9791 72.2151 74.6932C72.2151 74.4037 72.1605 74.1284 72.0546 73.8636C71.9488 73.5953 71.7986 73.3624 71.6005 73.1576C71.4059 72.9564 71.1771 72.7975 70.921 72.6881C70.6649 72.5787 70.3952 72.5222 70.1186 72.5222ZM70.1186 66.0162H36.5532C36.2732 66.0162 36.0069 66.0727 35.7508 66.1822C35.4947 66.2916 35.2659 66.4504 35.0713 66.6517C34.8732 66.8564 34.723 67.0894 34.6137 67.3577C34.5079 67.6224 34.4567 67.8978 34.4567 68.1872C34.4567 68.4732 34.5079 68.7485 34.6137 69.0168C34.723 69.2816 34.8732 69.5146 35.0713 69.7193C35.2659 69.924 35.4947 70.0794 35.7508 70.1888C36.0069 70.2982 36.2732 70.3547 36.5532 70.3547H70.1186C70.3952 70.3547 70.6649 70.2982 70.921 70.1888C71.1771 70.0794 71.4059 69.924 71.6005 69.7193C71.7986 69.5146 71.9488 69.2816 72.0546 69.0168C72.1605 68.7485 72.2151 68.4732 72.2151 68.1872C72.2151 67.8978 72.1605 67.6224 72.0546 67.3577C71.9488 67.0894 71.7986 66.8564 71.6005 66.6517C71.4059 66.4504 71.1771 66.2916 70.921 66.1822C70.6649 66.0727 70.3952 66.0162 70.1186 66.0162Z" fill="#0B2141"/>
</svg>
