<svg width="110" height="114" viewBox="0 0 110 114" fill="none" xmlns="http://www.w3.org/2000/svg">
<mask id="mask0_124_15" style="mask-type:luminance" maskUnits="userSpaceOnUse" x="0" y="0" width="85" height="88">
<path d="M0.978882 0.953125H84.8103V87.6593H0.978882V0.953125Z" fill="white"/>
</mask>
<g mask="url(#mask0_124_15)">
<path d="M56.8312 70.6548C56.7356 70.443 56.6024 70.2594 56.4317 70.1006C56.2644 69.9417 56.0698 69.8252 55.8546 69.744C55.6429 69.6664 55.421 69.6311 55.1922 69.6452C54.9669 69.6558 54.7483 69.7123 54.5434 69.8146C53.1401 70.4995 51.6923 71.0608 50.1967 71.495C49.886 71.5832 49.6196 71.7527 49.4011 71.9962C49.1791 72.2398 49.0391 72.5293 48.9743 72.8541L47.1577 82.2512C47.1133 82.4771 47.0348 82.6889 46.9187 82.8866C46.806 83.0807 46.6626 83.2537 46.4884 83.3984C46.3177 83.5467 46.1265 83.6561 45.9148 83.7338C45.7065 83.8115 45.4914 83.8503 45.2694 83.8538H40.3115C40.0861 83.8503 39.871 83.8115 39.6627 83.7338C39.451 83.6561 39.2632 83.5467 39.089 83.3984C38.9183 83.2537 38.7749 83.0807 38.6588 82.8866C38.5461 82.6889 38.4642 82.4771 38.4198 82.2512L36.6032 72.8541C36.5384 72.5293 36.3984 72.2398 36.1798 71.9962C35.9579 71.7527 35.6915 71.5832 35.3808 71.495C33.2706 70.8807 31.2594 70.0194 29.3472 68.9074C29.0638 68.745 28.7633 68.6674 28.439 68.6815C28.1146 68.6921 27.8209 68.7909 27.5512 68.978L19.8376 74.2943C19.0762 74.8168 18.0552 74.7144 17.4064 74.0437L13.8997 70.4183C13.2543 69.7511 13.1519 68.6921 13.6606 67.9049L18.803 59.9339C18.9806 59.655 19.0762 59.3479 19.0898 59.0126C19.1001 58.6807 19.0284 58.3666 18.8679 58.0771C17.7923 56.1002 16.9591 54.021 16.3684 51.8359C16.283 51.5146 16.1191 51.2393 15.8835 51.0134C15.6445 50.7874 15.3679 50.6392 15.0504 50.5756L5.96417 48.6941C5.74564 48.6482 5.54076 48.567 5.34955 48.4505C5.15833 48.3305 4.99443 48.1822 4.85102 48.0022C4.71102 47.8257 4.60175 47.628 4.52663 47.4127C4.45151 47.1973 4.41395 46.9714 4.41395 46.742V41.6163C4.41395 41.3868 4.45151 41.1609 4.52663 40.9455C4.60175 40.7302 4.71102 40.5325 4.85102 40.3525C4.99443 40.176 5.15833 40.0277 5.34955 39.9077C5.54076 39.7912 5.74564 39.71 5.96417 39.6641L15.0504 37.7826C15.3679 37.719 15.6445 37.5708 15.8835 37.3449C16.1191 37.1189 16.283 36.8436 16.3684 36.5223C16.9591 34.3372 17.7923 32.258 18.8679 30.2811C19.0284 29.9917 19.1001 29.6775 19.0898 29.3421C19.0762 29.0103 18.9806 28.7032 18.803 28.4243L13.6606 20.4534C13.5377 20.2627 13.4489 20.0545 13.3943 19.8285C13.3431 19.6061 13.326 19.3802 13.3465 19.1508C13.3704 18.9213 13.4285 18.706 13.5241 18.4977C13.6197 18.2894 13.746 18.1023 13.9031 17.9399L17.4064 14.3145C18.0552 13.6438 19.0762 13.5414 19.8376 14.0674L27.5512 19.3802C27.8209 19.5673 28.118 19.6661 28.439 19.6767C28.7633 19.6909 29.0672 19.6132 29.3472 19.4508C31.2594 18.3388 33.2706 17.4775 35.3808 16.8668C35.695 16.775 35.9579 16.6091 36.1798 16.362C36.3984 16.1184 36.5418 15.8325 36.6032 15.5042L38.4198 6.10706C38.4642 5.88113 38.5461 5.67286 38.6588 5.47517C38.7749 5.27749 38.9183 5.10451 39.089 4.95978C39.2632 4.81505 39.4544 4.70208 39.6627 4.62442C39.871 4.54676 40.0895 4.50793 40.3115 4.50793H45.2694C45.4914 4.50793 45.7065 4.54676 45.9182 4.62442C46.1265 4.70208 46.3177 4.81505 46.4884 4.95978C46.6626 5.10451 46.806 5.27749 46.9187 5.47517C47.0348 5.67286 47.1133 5.88113 47.1577 6.10706L48.9743 15.5042C49.0391 15.8325 49.1791 16.1184 49.4011 16.362C49.6196 16.6091 49.886 16.775 50.1967 16.8668C52.3103 17.4775 54.3215 18.3388 56.2303 19.4508C56.5137 19.6132 56.8176 19.6909 57.1385 19.6767C57.4629 19.6661 57.76 19.5673 58.0297 19.3802L65.7399 14.0674C66.5013 13.5414 67.5223 13.6473 68.1711 14.3145L71.6778 17.9399C72.3232 18.6071 72.4256 19.6661 71.9168 20.4534L66.7779 28.4243C66.5969 28.7032 66.5013 29.0103 66.4911 29.3457C66.4774 29.6775 66.5491 29.9917 66.7096 30.2847C67.7852 32.258 68.6184 34.3372 69.2091 36.5223C69.2979 36.8436 69.4583 37.1189 69.6974 37.3449C69.933 37.5743 70.2096 37.719 70.5271 37.7861L79.6167 39.6641C79.8353 39.71 80.0367 39.7912 80.2279 39.9112C80.4192 40.0277 80.5865 40.176 80.7265 40.356C80.8665 40.5325 80.9757 40.7302 81.0509 40.9455C81.126 41.1644 81.1635 41.3868 81.1635 41.6163V46.742C81.1635 46.9714 81.126 47.1973 81.0509 47.4127C80.9757 47.628 80.8665 47.8257 80.7265 48.0057C80.5865 48.1822 80.4192 48.3305 80.2279 48.4505C80.0367 48.567 79.8353 48.6517 79.6167 48.6976L70.5271 50.5756C70.2096 50.6392 69.933 50.7874 69.6974 51.0134C69.4583 51.2428 69.2979 51.5182 69.2091 51.8394C68.7823 53.4209 68.2223 54.9565 67.5359 56.4391C67.4369 56.6509 67.3823 56.8733 67.3686 57.1098C67.355 57.3464 67.3891 57.5723 67.4642 57.7947C67.5394 58.0171 67.652 58.2183 67.8057 58.3913C67.9559 58.5678 68.1369 58.7054 68.3418 58.8078C68.5467 58.9102 68.7618 58.9667 68.9905 58.9808C69.2193 58.9949 69.4379 58.9596 69.653 58.8819C69.8681 58.8043 70.0627 58.6878 70.23 58.5289C70.4008 58.3736 70.5339 58.1865 70.633 57.9747C71.2544 56.6368 71.7803 55.2636 72.2139 53.848L80.2894 52.1783C82.7855 51.6629 84.5986 49.3754 84.5986 46.742V41.6163C84.5986 38.9828 82.7855 36.6953 80.2894 36.1799L72.2139 34.5102C71.6847 32.784 71.0154 31.1142 70.2096 29.508L74.7783 22.4231C76.1885 20.231 75.9085 17.2904 74.1056 15.4265L70.6022 11.8011C68.7993 9.94074 65.9516 9.64774 63.8345 11.1092L56.9815 15.8325C55.4244 14.9994 53.8127 14.3075 52.143 13.7603L50.5279 5.41163C50.0294 2.8276 47.8167 0.953125 45.2694 0.953125H40.3115C37.7608 0.953125 35.5515 2.8276 35.0496 5.41163L33.4345 13.7603C31.7648 14.3075 30.1531 14.9994 28.596 15.8325L21.7464 11.1092C19.6259 9.64774 16.7782 9.94074 14.9787 11.8046L11.4719 15.4265C9.669 17.2904 9.389 20.231 10.8026 22.4231L15.3679 29.508C14.5621 31.1178 13.8962 32.784 13.3636 34.5102L5.28809 36.1799C2.79203 36.6953 0.978882 38.9828 0.978882 41.6163V46.742C0.978882 49.3754 2.79203 51.6629 5.28809 52.1818L13.3636 53.848C13.8962 55.5778 14.5621 57.244 15.3679 58.8537L10.8026 65.9351C9.389 68.1273 9.669 71.0714 11.4719 72.9317L14.9787 76.5571C16.7782 78.421 19.6259 78.7105 21.7464 77.249L28.596 72.5293C30.1531 73.3624 31.7648 74.0508 33.4379 74.6014L35.053 82.9501C35.5515 85.5306 37.7642 87.4051 40.3115 87.4051H45.2694C47.8167 87.4051 50.0294 85.5306 50.5279 82.9501L52.143 74.6014C53.4679 74.1637 54.7586 73.6377 56.0151 73.0235C56.2234 72.9211 56.401 72.7835 56.5546 72.6105C56.7083 72.434 56.821 72.2363 56.8995 72.0139C56.9746 71.7915 57.0088 71.562 56.9951 71.3291C56.9849 71.0925 56.9302 70.8701 56.8312 70.6548Z" fill="#0B2141"/>
</g>
<mask id="mask1_124_15" style="mask-type:luminance" maskUnits="userSpaceOnUse" x="22" y="23" width="88" height="91">
<path d="M22.7468 23.4963H109.802V113.457H22.7468V23.4963Z" fill="white"/>
</mask>
<g mask="url(#mask1_124_15)">
<path d="M57.6712 54.0492C57.876 54.1587 58.0912 54.2222 58.3165 54.2399C58.5453 54.261 58.7673 54.2328 58.9824 54.1622C59.2009 54.0881 59.3955 53.9751 59.5697 53.8233C59.7438 53.6715 59.8804 53.4915 59.9863 53.2797C61.3726 50.4874 62.1033 47.3385 62.1033 44.1791C62.1033 33.1687 53.4405 24.2129 42.7904 24.2129C37.7232 24.2129 32.9359 26.225 29.3062 29.8822C29.1457 30.0481 29.0228 30.2388 28.934 30.4541C28.8487 30.6694 28.8043 30.8918 28.8009 31.1283C28.7975 31.3613 28.8418 31.5873 28.9238 31.8026C29.0092 32.0215 29.1321 32.2121 29.2892 32.3815C29.4462 32.5474 29.6306 32.6781 29.8389 32.7734C30.0438 32.8651 30.2623 32.9146 30.4877 32.9181C30.7165 32.9216 30.935 32.8793 31.1433 32.7945C31.355 32.7098 31.5428 32.5863 31.7067 32.4239C34.6876 29.4198 38.6246 27.7642 42.787 27.7642C51.5454 27.7642 58.6682 35.1279 58.6682 44.1791C58.6682 46.8161 58.0809 49.333 56.9268 51.6594C56.8244 51.8676 56.7629 52.09 56.7424 52.3265C56.7253 52.5595 56.7527 52.789 56.8209 53.0149C56.8892 53.2373 56.9985 53.4421 57.1453 53.6186C57.2956 53.7986 57.4697 53.9433 57.6712 54.0492ZM26.7043 36.5788C26.4892 36.5011 26.2673 36.4729 26.0419 36.487C25.8131 36.5011 25.598 36.5576 25.3931 36.6635C25.1882 36.7659 25.0107 36.9071 24.8604 37.0836C24.7068 37.2601 24.5975 37.4578 24.5224 37.6802C23.8224 39.7877 23.4741 41.9516 23.4741 44.1791C23.4741 55.1895 32.1403 64.1488 42.7904 64.1488C46.8845 64.1488 50.7976 62.8392 54.1063 60.361C54.2873 60.2234 54.4341 60.0539 54.5502 59.8527C54.6663 59.6515 54.7415 59.4362 54.7756 59.2067C54.8098 58.9772 54.7995 58.7478 54.7449 58.5219C54.6937 58.2959 54.6015 58.0877 54.4683 57.9006C54.3351 57.7099 54.1746 57.5546 53.9834 57.4311C53.7922 57.3075 53.5839 57.2263 53.362 57.191C53.14 57.1522 52.9181 57.1557 52.6995 57.2087C52.4776 57.2581 52.2761 57.3499 52.0917 57.484C49.3737 59.5209 46.1572 60.594 42.7904 60.594C34.0354 60.594 26.9126 53.2303 26.9126 44.1791C26.9126 42.347 27.1994 40.5502 27.7697 38.8345C27.8448 38.6121 27.8755 38.3862 27.8619 38.1497C27.8482 37.9132 27.7902 37.6908 27.6911 37.479C27.5921 37.2672 27.4555 37.0836 27.2848 36.9283C27.1141 36.773 26.9194 36.6565 26.7043 36.5788ZM106.493 78.5904L101.525 77.5632C101.224 76.6312 100.859 75.724 100.435 74.845L103.246 70.4853C104.331 68.805 104.116 66.5493 102.733 65.1196L100.429 62.7368C99.0457 61.3106 96.8638 61.0847 95.2384 62.2073L91.0214 65.1125C90.1712 64.6748 89.2936 64.3006 88.3922 63.9864L87.3985 58.8502C87.0161 56.8698 85.3191 55.4295 83.3659 55.4295H80.1084C78.1518 55.4295 76.4582 56.8698 76.0724 58.8502L75.0787 63.9864C74.1773 64.3006 73.3031 64.6748 72.4495 65.1125L68.2325 62.2073C66.6071 61.0847 64.4252 61.3106 63.0423 62.7368L60.7409 65.1196C59.358 66.5493 59.1429 68.805 60.2253 70.4853L63.0355 74.845C62.455 76.0558 61.9838 77.3161 61.6321 78.6187C61.5775 78.8446 61.5638 79.0705 61.5945 79.3035C61.6218 79.533 61.6936 79.7483 61.8062 79.9495C61.9189 80.1543 62.0623 80.3237 62.2399 80.4684C62.4174 80.6096 62.6155 80.712 62.834 80.7756C63.0491 80.8391 63.2711 80.8568 63.493 80.8285C63.7184 80.8038 63.9267 80.7332 64.1247 80.6202C64.3228 80.5108 64.4901 80.3625 64.6335 80.1825C64.7735 80.0025 64.8759 79.7977 64.9408 79.5753C65.3164 78.188 65.8457 76.8678 66.532 75.611C66.6891 75.3216 66.7642 75.0074 66.7505 74.672C66.7403 74.3402 66.6447 74.0331 66.4637 73.7542L63.0833 68.5156C62.9945 68.3743 62.9604 68.2226 62.974 68.0566C62.9911 67.8907 63.056 67.7495 63.1687 67.633L65.4735 65.2502C65.5862 65.1337 65.7262 65.0667 65.8867 65.049C66.0471 65.0313 66.194 65.0702 66.3271 65.162L71.3944 68.6568C71.6641 68.8403 71.9612 68.9392 72.2856 68.9533C72.6066 68.9639 72.9105 68.8897 73.1939 68.7238C74.406 68.0178 75.6865 67.4706 77.0284 67.0823C77.3392 66.9906 77.6055 66.8246 77.824 66.5811C78.0426 66.334 78.186 66.048 78.2475 65.7197L79.4426 59.5456C79.4767 59.3832 79.5518 59.2491 79.6782 59.1432C79.8045 59.0373 79.9445 58.9843 80.1084 58.9843H83.3659C83.5264 58.9843 83.6698 59.0373 83.7927 59.1432C83.9191 59.2491 83.9976 59.3832 84.0283 59.5456L85.2234 65.7197C85.2883 66.048 85.4283 66.334 85.6469 66.5811C85.8688 66.8246 86.1351 66.9941 86.4459 67.0823C87.7878 67.4706 89.0649 68.0178 90.2804 68.7238C90.5604 68.8897 90.8643 68.9639 91.1887 68.9533C91.5097 68.9392 91.8068 68.8403 92.0765 68.6568L97.1438 65.162C97.2803 65.0702 97.4272 65.0313 97.5877 65.049C97.7481 65.0667 97.8847 65.1337 97.9974 65.2502L100.302 67.633C100.415 67.7495 100.48 67.8907 100.497 68.0566C100.514 68.2226 100.476 68.3779 100.388 68.5156L97.0072 73.7542C96.8296 74.0331 96.734 74.3402 96.7204 74.672C96.7101 75.0074 96.7818 75.3216 96.9423 75.611C97.6252 76.8678 98.1545 78.188 98.5301 79.5753C98.6189 79.9001 98.7793 80.1719 99.0149 80.4014C99.254 80.6273 99.5305 80.7756 99.8481 80.8391L105.82 82.0746C105.977 82.1064 106.107 82.1876 106.209 82.3182C106.312 82.4453 106.363 82.5936 106.363 82.7595V86.1307C106.363 86.2966 106.312 86.4449 106.209 86.572C106.107 86.7026 105.977 86.7838 105.82 86.8156L99.8481 88.0511C99.5305 88.1146 99.254 88.2629 99.0149 88.4888C98.7793 88.7183 98.6154 88.9901 98.5301 89.3149C98.1545 90.7022 97.6252 92.0224 96.9423 93.2792C96.7818 93.5686 96.7101 93.8828 96.7204 94.2146C96.734 94.55 96.8296 94.8571 97.0072 95.136L100.388 100.375C100.476 100.512 100.514 100.668 100.497 100.83C100.48 100.996 100.415 101.141 100.302 101.257L97.9974 103.64C97.8847 103.756 97.7481 103.824 97.5877 103.841C97.4272 103.855 97.2769 103.82 97.1438 103.728L92.0765 100.233C91.8068 100.05 91.5097 99.951 91.1887 99.9369C90.8643 99.9228 90.5604 100 90.2804 100.163C89.0649 100.872 87.7878 101.42 86.4459 101.808C86.1317 101.896 85.8688 102.066 85.6469 102.309C85.4283 102.556 85.2849 102.842 85.2234 103.17L84.0283 109.345C83.9976 109.507 83.9191 109.641 83.7927 109.747C83.6698 109.853 83.5264 109.906 83.3659 109.906H80.105C79.9445 109.906 79.8011 109.853 79.6782 109.747C79.5518 109.641 79.4733 109.507 79.4426 109.345L78.2475 103.17C78.186 102.842 78.0426 102.556 77.824 102.309C77.6021 102.066 77.3392 101.896 77.0284 101.808C75.6831 101.42 74.406 100.872 73.1905 100.163C72.9105 100 72.6066 99.9228 72.2856 99.9369C71.9612 99.9475 71.6641 100.046 71.3944 100.233L66.3271 103.728C66.194 103.82 66.0471 103.855 65.8867 103.841C65.7262 103.824 65.5862 103.756 65.4735 103.64L63.1687 101.257C63.056 101.141 62.9911 100.996 62.974 100.83C62.9604 100.664 62.9945 100.512 63.0833 100.375L66.4637 95.136C66.6413 94.8571 66.7403 94.55 66.7505 94.2146C66.7642 93.8828 66.6891 93.5686 66.532 93.2792C65.8457 92.0224 65.3164 90.6987 64.9408 89.3113C64.8555 88.9901 64.6916 88.7147 64.456 88.4888C64.2169 88.2629 63.9403 88.1146 63.6228 88.0511L57.6507 86.8156C57.4936 86.7838 57.3639 86.7026 57.2614 86.572C57.159 86.4449 57.1078 86.2966 57.1078 86.1272V82.7595C57.1078 82.5936 57.159 82.4453 57.2614 82.3182C57.3639 82.1876 57.4936 82.1064 57.6507 82.0746L58.016 81.997C58.2414 81.9511 58.4463 81.8628 58.6375 81.7322C58.8253 81.6016 58.9824 81.4392 59.1087 81.2415C59.2351 81.0474 59.3204 80.832 59.3648 80.6026C59.4092 80.3696 59.4092 80.1401 59.3648 79.9072C59.1804 78.947 58.2756 78.3222 57.3434 78.5163L56.978 78.5904C55.0624 78.9858 53.6727 80.7403 53.6727 82.7595V86.1307C53.6727 88.1499 55.0624 89.9044 56.978 90.2998L61.9462 91.327C62.2501 92.259 62.6121 93.1662 63.0355 94.0452L60.2253 98.4048C59.1394 100.085 59.358 102.341 60.7375 103.771L63.0423 106.153C64.4252 107.58 66.6071 107.802 68.2325 106.683L72.4495 103.778C73.3031 104.215 74.1773 104.59 75.0787 104.904L76.0724 110.04C76.4582 112.02 78.1518 113.457 80.1084 113.457H83.3659C85.3191 113.457 87.0161 112.02 87.3985 110.04L88.3922 104.904C89.2936 104.59 90.1712 104.215 91.0214 103.778L95.2384 106.683C96.8638 107.802 99.0491 107.58 100.429 106.153L102.733 103.771C104.116 102.341 104.331 100.085 103.246 98.4048L100.435 94.0452C100.859 93.1627 101.224 92.259 101.525 91.327L106.493 90.2998C108.408 89.9009 109.802 88.1499 109.802 86.1272V82.7595C109.802 80.7403 108.412 78.9858 106.493 78.5904Z" fill="#0B2141"/>
</g>
<path d="M81.7373 78.0505C85.1484 78.0505 87.9211 80.9169 87.9211 84.4435C87.9211 84.68 87.9655 84.9059 88.0542 85.1248C88.1396 85.3436 88.2625 85.5343 88.4264 85.7002C88.5869 85.8661 88.7713 85.9967 88.983 86.0849C89.1947 86.1767 89.4132 86.2226 89.6386 86.2226C89.8674 86.2226 90.0859 86.1767 90.2976 86.0849C90.5093 85.9967 90.6937 85.8661 90.8542 85.7002C91.0147 85.5343 91.141 85.3436 91.2264 85.1248C91.3152 84.9059 91.3596 84.68 91.3596 84.4435C91.3596 78.9612 87.0435 74.4957 81.7373 74.4957C76.431 74.4957 72.115 78.9612 72.115 84.4435C72.115 89.9292 76.431 94.3913 81.7373 94.3913C83.885 94.3913 85.9167 93.6746 87.6138 92.3191C87.7913 92.1744 87.9347 92.0014 88.044 91.7966C88.1533 91.5919 88.2216 91.3766 88.2489 91.1436C88.2762 90.9141 88.2591 90.6847 88.2011 90.4587C88.1396 90.2363 88.0406 90.0316 87.904 89.8445C87.764 89.6609 87.6001 89.5091 87.4021 89.3926C87.2074 89.2762 86.9991 89.202 86.7738 89.1702C86.5518 89.1385 86.3299 89.1526 86.1113 89.2126C85.8928 89.2691 85.6948 89.3679 85.5138 89.5091C84.4245 90.3775 83.1168 90.84 81.7373 90.84C78.3261 90.84 75.55 87.97 75.55 84.4435C75.55 80.9169 78.3261 78.0505 81.7373 78.0505ZM53.2562 44.1792C53.2562 38.2134 48.5612 33.356 42.7905 33.356C37.0165 33.356 32.3214 38.2134 32.3214 44.1792C32.3214 50.1486 37.0165 55.0025 42.7905 55.0025C48.5612 55.0025 53.2562 50.1486 53.2562 44.1792ZM35.7565 44.1792C35.7565 40.1726 38.9116 36.9108 42.7905 36.9108C46.6661 36.9108 49.8212 40.1726 49.8212 44.1792C49.8212 48.1894 46.6661 51.4512 42.7905 51.4512C38.9116 51.4512 35.7565 48.1894 35.7565 44.1792Z" fill="#0B2141"/>
</svg>
