<svg width="109" height="113" viewBox="0 0 109 113" fill="none" xmlns="http://www.w3.org/2000/svg">
<path d="M76.0361 38.0049H66.1406C65.666 38.0049 65.2084 38.199 64.8704 38.5485L49.6447 54.2645C49.293 54.6281 49.1189 55.0623 49.1189 55.5742V58.3806C49.1189 59.4043 49.9213 60.2339 50.915 60.2339H76.0361C77.0297 60.2339 77.8321 59.4043 77.8321 58.3806V39.8582C77.8321 38.8345 77.0297 38.0049 76.0361 38.0049ZM74.2434 56.5273H52.7076V56.3437L66.885 41.708H74.2434V56.5273Z" fill="#0B2141"/>
<mask id="mask0_123_11" style="mask-type:luminance" maskUnits="userSpaceOnUse" x="0" y="0" width="109" height="113">
<path d="M0.577209 0.953125H108.089V112.102H0.577209V0.953125Z" fill="white"/>
</mask>
<g mask="url(#mask0_123_11)">
<path d="M97.5718 86.3178V76.9066C97.5718 75.8829 96.7694 75.0533 95.7792 75.0533H88.5983V28.742C88.5983 27.7183 87.7959 26.8887 86.8057 26.8887H61.6812C61.186 26.8887 60.7626 27.0723 60.4109 27.4323L51.8096 36.3105L18.0838 1.49676C17.7355 1.13669 17.3121 0.956655 16.8169 0.953125H6.04734C5.05712 0.953125 4.25469 1.7827 4.25469 2.80642V26.8887C4.25469 27.9124 5.05712 28.742 6.04734 28.742V41.708C6.04734 42.7318 6.85319 43.5613 7.84342 43.5613C9.82387 43.5613 11.4321 45.2205 11.4321 47.2679C11.4321 49.3154 9.82387 50.971 7.84342 50.971C5.85954 50.971 4.25469 49.3154 4.25469 47.2679C4.25469 46.2442 3.45226 45.4146 2.45862 45.4146C1.46839 45.4146 0.665961 46.2442 0.665961 47.2679C0.648888 51.3593 3.85177 54.6882 7.8161 54.7058C11.7804 54.72 15.0072 51.4158 15.0209 47.3209C15.0345 43.932 12.8185 40.9667 9.63949 40.1195V28.742C10.0048 28.742 10.3429 28.6361 10.6468 28.4208C10.9507 28.2054 11.1726 27.923 11.3058 27.57L14.6282 18.8789L41.6649 46.7843L38.8786 49.6613C38.5269 50.0249 38.3527 50.4591 38.3527 50.971V75.0533H31.1718C30.1816 75.0533 29.3792 75.8829 29.3792 76.9066V86.3178C22.5193 87.3945 17.8072 94.0099 18.852 101.088C19.7808 107.385 25.0017 112.052 31.1718 112.105H95.7792C102.714 112.049 108.297 106.199 108.242 99.0367C108.195 92.6685 103.674 87.2745 97.5718 86.3178ZM15.2326 14.2616C14.5292 13.5379 13.3955 13.5379 12.6955 14.2616C12.518 14.4416 12.3848 14.6534 12.2926 14.8899L8.41707 25.0354H7.84342V4.65972H16.0726L49.2726 38.9299L44.2019 44.165L15.2326 14.2616ZM41.9414 51.737L62.4255 30.5953H85.0096V75.0533H41.9414V51.737ZM32.9679 78.7599H93.9831V86.1696H32.9679V78.7599ZM95.7792 108.399H31.1718C26.2173 108.399 22.2017 104.251 22.2017 99.1356C22.2017 94.0205 26.2173 89.8726 31.1718 89.8726H95.7792C100.734 89.8726 104.749 94.0205 104.749 99.1356C104.749 104.251 100.734 108.399 95.7792 108.399Z" fill="#0B2141"/>
</g>
<path d="M63.4739 91.7261C59.5095 91.7261 56.2964 95.0444 56.2964 99.1357C56.2964 103.227 59.5095 106.545 63.4739 106.545C67.4416 106.545 70.6547 103.227 70.6547 99.1357C70.6547 95.0444 67.4416 91.7261 63.4739 91.7261ZM63.4739 102.842C61.4934 102.842 59.8851 101.183 59.8851 99.1357C59.8851 97.0883 61.4934 95.4327 63.4739 95.4327C65.4577 95.4327 67.066 97.0883 67.066 99.1357C67.066 101.183 65.4577 102.842 63.4739 102.842ZM85.0096 91.7261C81.0453 91.7261 77.8322 95.0444 77.8322 99.1357C77.8322 103.227 81.0453 106.545 85.0096 106.545C88.974 106.545 92.1871 103.227 92.1871 99.1357C92.1871 95.0444 88.974 91.7261 85.0096 91.7261ZM85.0096 102.842C83.0292 102.842 81.4209 101.183 81.4209 99.1357C81.4209 97.0883 83.0292 95.4327 85.0096 95.4327C86.9935 95.4327 88.5984 97.0883 88.5984 99.1357C88.5984 101.183 86.9935 102.842 85.0096 102.842ZM41.9415 91.7261C37.9772 91.7261 34.7606 95.0444 34.7606 99.1357C34.7606 103.227 37.9772 106.545 41.9415 106.545C45.9058 106.545 49.1189 103.227 49.1189 99.1357C49.1189 95.0444 45.9058 91.7261 41.9415 91.7261ZM41.9415 102.842C39.9576 102.842 38.3528 101.183 38.3528 99.1357C38.3528 97.0883 39.9576 95.4327 41.9415 95.4327C43.9219 95.4327 45.5302 97.0883 45.5302 99.1357C45.5302 101.183 43.9219 102.842 41.9415 102.842Z" fill="#0B2141"/>
</svg>
