<svg width="109" height="113" viewBox="0 0 109 113" fill="none" xmlns="http://www.w3.org/2000/svg">
<mask id="mask0_124_16" style="mask-type:luminance" maskUnits="userSpaceOnUse" x="0" y="0" width="109" height="113">
<path d="M0.8125 0.953125H108.98V112.779H0.8125V0.953125Z" fill="white"/>
</mask>
<g mask="url(#mask0_124_16)">
<path d="M107.539 32.6816C107.334 32.6392 107.129 32.6322 106.924 32.6604C106.719 32.6922 106.524 32.7557 106.34 32.8546C106.156 32.9534 105.995 33.084 105.852 33.2394C105.712 33.3982 105.599 33.5747 105.517 33.7724L100.58 45.6865H94.348C92.5314 45.69 90.9983 47.0879 90.7729 48.9518L89.3286 60.8164L78.6682 62.3909C77.8761 62.5109 77.1966 62.8639 76.6297 63.4464L74.6698 65.4762C74.9907 61.4377 74.5673 48.1222 59.1095 28.8126L59.2017 28.7244C61.4144 26.6522 61.5817 23.1151 59.5739 20.8276C57.5661 18.5401 54.1481 18.3706 51.9355 20.4428L51.8433 20.531C31.6426 -0.494205 17.4516 0.917832 16.8233 1.00255C16.4306 1.05198 16.0892 1.21436 15.7989 1.49677C15.5121 1.77565 15.3311 2.11806 15.2594 2.52049C15.1911 2.92646 15.2424 3.31124 15.4165 3.67836C15.5906 4.04549 15.857 4.32437 16.2087 4.51147C25.7183 9.57009 36.7611 21.9678 42.2449 28.562L7.8771 61.766C7.48101 62.1367 7.14638 62.5603 6.87321 63.0333C6.59663 63.5099 6.39517 64.0147 6.26542 64.5513C6.13566 65.0879 6.08444 65.6315 6.10835 66.1822C6.13566 66.7364 6.2381 67.273 6.41907 67.7919C6.60005 68.3144 6.84931 68.7945 7.16687 69.2393C7.48784 69.684 7.86003 70.0688 8.29027 70.4007C8.7205 70.729 9.18489 70.9866 9.69025 71.1737C10.1922 71.3608 10.7112 71.4667 11.2473 71.4914H11.517C12.1931 71.4914 12.8453 71.3644 13.4736 71.1102C14.1019 70.856 14.6653 70.496 15.1638 70.0229L49.5009 36.8471C55.4662 43.2684 67.0552 56.5697 71.0742 67.04C71.1971 67.3507 71.3884 67.6048 71.6444 67.806L63.4494 66.394C62.8041 66.281 62.1792 66.3481 61.568 66.5882C60.9568 66.8282 60.448 67.213 60.0417 67.7425L39.8513 93.8334L25.8276 88.9972C25.2061 88.7854 24.5744 88.7501 23.9359 88.8913C23.2939 89.0325 22.734 89.329 22.2491 89.7879L1.39964 109.542C1.12647 109.804 0.948911 110.121 0.863547 110.495C0.778182 110.87 0.8055 111.237 0.938668 111.593C1.07525 111.95 1.29378 112.239 1.6011 112.455C1.90841 112.674 2.24645 112.783 2.61864 112.783H107.177C107.252 112.779 107.327 112.776 107.399 112.765C107.477 112.744 107.556 112.719 107.631 112.684C107.866 112.638 108.075 112.536 108.256 112.37C108.348 112.303 108.433 112.225 108.512 112.137C108.587 112.049 108.648 111.95 108.703 111.847C108.764 111.749 108.819 111.643 108.86 111.53C108.894 111.413 108.918 111.293 108.928 111.17C108.952 111.085 108.969 111.004 108.979 110.916V34.5067C108.979 34.2913 108.945 34.0831 108.874 33.8783C108.805 33.6771 108.706 33.4935 108.573 33.3276C108.443 33.1617 108.286 33.024 108.109 32.9111C107.931 32.8016 107.74 32.724 107.539 32.6816ZM54.3564 23.2174L54.3701 23.2068C54.5476 23.0409 54.7491 22.9138 54.9744 22.8326C55.1998 22.7479 55.432 22.7126 55.671 22.7232C55.9066 22.7373 56.1354 22.7938 56.3505 22.8997C56.5691 23.0056 56.7569 23.1504 56.9173 23.3339C57.0778 23.5175 57.1973 23.7258 57.2793 23.9587C57.3612 24.1882 57.3954 24.4282 57.3817 24.6754C57.3715 24.9225 57.3134 25.159 57.211 25.3814C57.1086 25.6038 56.972 25.8015 56.7944 25.9674L56.7842 25.978C56.3915 25.5155 55.992 25.046 55.5822 24.5836C55.1725 24.1247 54.7525 23.6622 54.3564 23.2139V23.2174ZM12.7156 67.2871C12.3502 67.6401 11.9166 67.8025 11.418 67.7672C11.0492 67.7495 10.718 67.6295 10.4244 67.4001C10.1307 67.1741 9.92244 66.8811 9.79951 66.5246C9.68 66.1645 9.66634 65.8009 9.75854 65.4338C9.85073 65.0667 10.0351 64.7596 10.3117 64.5089L44.5634 31.4178C44.7717 31.6791 44.9834 31.9438 45.1883 32.2086L45.3829 32.4592L45.3965 32.4769L45.6902 32.8475C45.7414 32.9146 45.7995 32.9781 45.8575 33.0346C45.8848 33.0593 46.2946 33.4723 46.9741 34.1784L12.7156 67.2871ZM48.4594 30.4576C47.3224 28.9679 36.5972 15.1088 25.3085 6.19179C31.1748 8.24631 39.9366 13.1037 50.4672 24.4035C51.2901 25.2861 52.0994 26.1756 52.8984 27.0829C53.7179 28.0148 54.4896 28.9362 55.2408 29.8434C65.0065 41.6798 68.8377 51.1758 70.282 57.4452C62.6265 44.7757 49.8492 31.8414 48.4594 30.4576ZM64.0572 103.231C64.5694 104.671 65.2216 106.037 66.0172 107.332C66.3553 107.929 66.6796 108.504 66.946 109.048H58.7441C59.0924 108.088 59.5875 107.212 60.2329 106.432C60.8748 105.649 61.6295 105.003 62.4899 104.494C63.009 104.099 63.5382 103.682 64.0572 103.231ZM69.1177 105.433C67.8167 103.171 66.5943 101.035 67.424 98.4614C68.0899 96.7069 69.1347 95.2454 70.5586 94.077C71.9859 92.7497 73.2083 91.2494 74.2293 89.5726C75.1 92.379 76.6092 94.7512 78.7604 96.6822C79.6346 97.3706 80.5667 97.9566 81.5604 98.4437C82.554 98.9309 83.5852 99.3051 84.654 99.5663C85.7262 99.8275 86.8086 99.9722 87.9081 99.9969C89.0076 100.025 90.0969 99.9299 91.1759 99.7216C100.621 98.5002 103.875 105.426 104.923 109.055H70.8113C70.3845 107.777 69.8211 106.57 69.1177 105.433ZM96.9465 96.2339C97.7489 95.3796 98.4557 94.4724 99.125 93.604C100.959 91.2353 102.488 89.2972 105.374 88.7395V101.801C104.346 100.371 103.106 99.178 101.652 98.2178C100.201 97.2611 98.6333 96.5975 96.9465 96.2339ZM79.1838 66.0798L89.8442 64.5089C90.2334 64.4489 90.6056 64.3289 90.9573 64.1418C91.3124 63.9582 91.6266 63.7217 91.9032 63.4287C92.1797 63.1357 92.4051 62.8074 92.5758 62.4403C92.7466 62.0696 92.8593 61.6849 92.9071 61.2789L94.348 49.4142H100.583C100.935 49.4142 101.28 49.3613 101.618 49.2589C101.956 49.153 102.273 49.0012 102.567 48.8C102.861 48.5988 103.123 48.3587 103.349 48.0799C103.574 47.7975 103.759 47.4903 103.895 47.155L105.374 43.5861V84.9588C100.74 85.5871 98.3943 88.5842 96.3114 91.2776C95.649 92.3825 94.826 93.3427 93.8495 94.1582C92.8695 94.9736 91.7871 95.5984 90.6022 96.0327C88.9325 96.368 87.2696 96.3433 85.6101 95.955C83.9506 95.5702 82.4345 94.8536 81.0653 93.8122C77.6063 90.8434 76.7731 85.6542 76.5853 82.7313C76.8073 81.7181 76.9268 80.6944 76.9473 79.6601C76.9644 78.6222 76.8824 77.595 76.7014 76.5748C76.5171 75.5581 76.2371 74.5662 75.8615 73.606C75.4824 72.6458 75.0181 71.735 74.4615 70.8737C74.6015 70.7784 74.7312 70.6725 74.8576 70.556L79.1838 66.0798ZM24.6871 92.5308L38.7108 97.3635C39.0625 97.4835 39.421 97.5471 39.7932 97.5541C40.162 97.5612 40.5239 97.5118 40.8791 97.4023C41.2342 97.2964 41.562 97.134 41.8693 96.9222C42.1766 96.7104 42.4463 96.4563 42.6785 96.1562L62.869 70.0653L69.9679 71.2902C70.0191 71.3502 70.0771 71.4067 70.1352 71.4597C70.1796 71.4914 74.5195 74.5873 72.9727 82.5901C72.6961 84.3163 72.1327 85.9366 71.2893 87.4475C70.4425 88.9619 69.3635 90.2751 68.0591 91.3835C66.1914 92.9721 64.8392 94.9383 63.9958 97.2823C63.2104 99.1003 61.988 100.512 60.3217 101.515C58.9729 102.337 57.8393 103.403 56.9208 104.713C56.0022 106.026 55.374 107.474 55.0427 109.055H7.25565L24.6871 92.5308Z" fill="#0B2141"/>
</g>
<path d="M48.8455 67.9296C49.0538 68.0108 49.2689 68.0532 49.4909 68.0532C49.8904 68.0532 50.2523 67.9296 50.5733 67.679C53.3664 65.5115 58.2356 62.4615 60.3049 62.4615C60.7044 62.4615 61.0629 62.338 61.3805 62.0944C61.7014 61.8508 61.9166 61.5296 62.0326 61.1377C62.1487 60.7459 62.1385 60.354 62.0053 59.9693C61.8722 59.581 61.64 59.2738 61.3088 59.0479C60.7078 58.6314 55.3264 55.006 51.2938 55.006C50.7577 55.0024 50.2455 55.1189 49.7606 55.3554C49.2758 55.5919 48.866 55.9273 48.5314 56.358C46.4553 58.9667 47.3875 64.8231 47.7221 66.5529C47.7836 66.8671 47.9133 67.1459 48.1148 67.3895C48.3129 67.6366 48.5587 67.8131 48.8455 67.9296ZM51.2938 58.7337C52.8474 58.8785 54.3157 59.3233 55.6952 60.0752C54.0289 60.8977 52.4274 61.8402 50.8875 62.8992C50.645 61.4731 50.7782 60.0822 51.2938 58.7337ZM78.9417 44.2886C78.6344 44.571 78.4431 44.917 78.3646 45.3335C78.2861 45.7501 78.3407 46.149 78.5217 46.5267C79.6041 48.7612 77.6236 52.7573 76.8315 53.9822C76.5105 54.487 76.4422 55.1224 76.6539 55.6837C76.8656 56.2485 77.33 56.6722 77.8968 56.8204C79.1978 57.1523 80.5192 57.3252 81.8611 57.3429C83.3396 57.4347 84.6987 57.0605 85.9381 56.2238C86.3957 55.8532 86.7474 55.3978 86.9933 54.8542C87.2425 54.3141 87.362 53.7422 87.3484 53.1421C87.3484 48.5494 81.7724 44.571 81.1372 44.1368C80.7958 43.9038 80.4236 43.7979 80.0138 43.8262C79.6075 43.8544 79.249 44.0097 78.9417 44.2886ZM82.247 50.1097C83.0938 50.9816 83.5923 52.0301 83.7426 53.255C82.9094 53.6469 82.0421 53.7563 81.1407 53.5798C81.6392 52.4678 82.008 51.3099 82.247 50.1097ZM72.9252 36.3706C73.1642 36.3706 73.3964 36.3212 73.6149 36.2259C73.8369 36.1341 74.0315 35.9964 74.2022 35.8234C74.3695 35.6469 74.4993 35.4457 74.5915 35.2198C74.6837 34.9903 74.7281 34.7538 74.7281 34.5067V30.7789C74.7281 29.7481 73.9222 28.915 72.9252 28.915C72.6862 28.915 72.4574 28.9609 72.2354 29.0562C72.0169 29.1516 71.8223 29.2857 71.6515 29.4622C71.4842 29.6352 71.351 29.8364 71.2623 30.0658C71.1701 30.2918 71.1223 30.5318 71.1223 30.7789V34.5067C71.1223 34.7538 71.1701 34.9903 71.2623 35.2198C71.351 35.4457 71.4808 35.6469 71.6515 35.8234C71.8188 35.9964 72.0135 36.1341 72.2354 36.2259C72.4574 36.3212 72.6862 36.3706 72.9252 36.3706ZM77.528 39.9113C77.7431 40.0207 77.9685 40.0843 78.2075 40.1019C78.4466 40.1196 78.6787 40.0878 78.9041 40.0101C79.1329 39.9325 79.3343 39.8124 79.5153 39.6501C79.6963 39.4877 79.8397 39.297 79.949 39.0746L81.7485 35.3469C81.8611 35.128 81.926 34.8915 81.9431 34.6444C81.9636 34.3937 81.9363 34.1537 81.8611 33.9172C81.786 33.6771 81.6699 33.4653 81.5128 33.2782C81.3524 33.0876 81.168 32.9393 80.9529 32.8264C80.7377 32.7169 80.509 32.6534 80.2665 32.6358C80.0275 32.6181 79.7919 32.6499 79.5665 32.7311C79.3378 32.8123 79.1329 32.9323 78.9519 33.0982C78.7709 33.2641 78.6275 33.4583 78.5217 33.6807L76.7222 37.4084C76.4968 37.8709 76.4661 38.3439 76.6232 38.8346C76.7802 39.3218 77.0841 39.6818 77.528 39.9113Z" fill="#0B2141"/>
</svg>
