<svg width="102" height="100" viewBox="0 0 102 100" fill="none" xmlns="http://www.w3.org/2000/svg">
<path d="M4.40534 36.7546C4.65802 37.0158 4.96192 37.1817 5.31362 37.2453C5.66874 37.3124 6.01019 37.2665 6.33458 37.1111L7.33164 36.6346V95.7742H3.89998V86.9102H0.471741V97.5463C0.471741 97.7828 0.516131 98.0088 0.601495 98.2276C0.690274 98.443 0.813199 98.6336 0.973684 98.803C1.13417 98.969 1.32197 99.096 1.53026 99.1843C1.74197 99.2761 1.9605 99.322 2.18586 99.322H15.9057C16.131 99.322 16.3496 99.2761 16.5613 99.1843C16.7695 99.096 16.9573 98.969 17.1178 98.803C17.2783 98.6336 17.4012 98.443 17.49 98.2276C17.5754 98.0088 17.6198 97.7828 17.6198 97.5463V86.9102H14.1915V95.7742H10.7599V35.0001L27.7952 26.8703L45.4794 38.0784L31.763 86.9102H26.1938C25.8421 86.9102 25.5211 87.0125 25.2309 87.2173C24.9406 87.4185 24.7324 87.6903 24.6026 88.0257L21.1709 96.8897C21.1197 97.0239 21.0856 97.1615 21.0651 97.3063C21.0446 97.451 21.0446 97.5922 21.0583 97.737C21.0753 97.8817 21.1061 98.0229 21.1539 98.157C21.2017 98.2947 21.2666 98.4218 21.3451 98.5418C21.4236 98.6618 21.5124 98.7713 21.6183 98.8666C21.7207 98.9654 21.8368 99.0466 21.9597 99.1137C22.0826 99.1808 22.2124 99.2337 22.349 99.269C22.4856 99.3043 22.6221 99.322 22.7656 99.322H96.5001C96.7254 99.322 96.944 99.2761 97.1557 99.1843C97.364 99.096 97.5518 98.969 97.7122 98.803C97.8727 98.6336 97.9957 98.443 98.081 98.2276C98.1698 98.0088 98.2142 97.7828 98.2142 97.5463V85.8723L101.14 82.847C101.475 82.5011 101.642 82.081 101.642 81.5938V72.7298C101.642 72.4933 101.598 72.2673 101.513 72.052C101.424 71.8331 101.301 71.6425 101.14 71.4766C100.98 71.3107 100.796 71.1801 100.584 71.0918C100.376 71 100.154 70.9577 99.9283 70.9577H91.3543V67.4099C91.5831 67.4099 91.8016 67.3676 92.0099 67.2758C92.2216 67.1875 92.406 67.0569 92.5665 66.891C92.727 66.7251 92.8499 66.5345 92.9387 66.3156C93.024 66.1003 93.0684 65.8743 93.0684 65.6378V58.5459C93.0684 57.9563 92.8396 57.4833 92.3821 57.1303L86.5261 52.5871L87.6802 50.5961C87.7963 50.3949 87.8714 50.1795 87.9056 49.9501C87.9397 49.7171 87.9295 49.4876 87.8748 49.2617C87.8202 49.0358 87.728 48.8275 87.5948 48.6369C87.4617 48.4498 87.2978 48.2945 87.1066 48.1709L34.6517 14.9351L33.04 1.59841C33.0127 1.38307 32.9513 1.18186 32.8556 0.991231C32.7566 0.800605 32.6303 0.631161 32.4732 0.489958C32.3161 0.345224 32.1386 0.235791 31.944 0.161659C31.7493 0.0839966 31.5479 0.045166 31.3362 0.045166H22.7656C22.1714 0.045166 21.7036 0.295803 21.3622 0.797076L0.785882 30.9335C0.669786 31.1029 0.584422 31.29 0.533203 31.4912C0.47857 31.6924 0.461497 31.8972 0.47857 32.1055C0.495643 32.3137 0.546862 32.515 0.632226 32.7021C0.717591 32.8927 0.830272 33.0621 0.973684 33.2104L4.40534 36.7546ZM63.2693 68.3101L68.4937 86.9102H38.3565L63.2693 68.3101ZM36.0893 84.2308L40.8116 67.4099H58.6153L36.0893 84.2308ZM41.8087 63.8657L45.7901 49.6818H58.0382L62.023 63.8657H41.8087ZM46.7872 46.1376L49.1774 37.6265C49.2627 37.3194 49.3925 37.037 49.57 36.7723C49.7442 36.511 49.9559 36.2851 50.2017 36.0909C50.4476 35.9003 50.7207 35.7556 51.011 35.6532C51.3046 35.5508 51.6051 35.5014 51.9159 35.5014C52.2232 35.5014 52.5237 35.5508 52.8173 35.6532C53.111 35.7556 53.3807 35.9003 53.6266 36.0909C53.8758 36.2851 54.0841 36.511 54.2617 36.7723C54.4358 37.037 54.569 37.3194 54.6544 37.6265L57.0446 46.1376H46.7872ZM25.2958 95.7742L27.3548 90.4579H76.4735L78.5325 95.7742H25.2958ZM87.926 83.3659H82.7803V78.9357L87.926 74.9467V83.3659ZM94.7825 95.7742H82.7803V86.9102H87.926V92.23H91.3543V86.9102H94.7825V95.7742ZM98.2142 74.5019V80.8596L95.7898 83.3659H91.3543V74.5019H98.2142ZM86.8948 71.3107L80.0384 76.6305C79.5808 76.9835 79.352 77.4566 79.352 78.0461V88.3434L79.2291 88.0257C79.0993 87.6903 78.8876 87.4185 78.5974 87.2173C78.3072 87.0125 77.9862 86.9102 77.6345 86.9102H72.0653L61.1386 47.9979L80.1442 60.0426L87.926 65.4048V70.9577C87.5436 70.9577 87.2022 71.0742 86.8948 71.3107ZM89.6402 59.4319V62.3266L83.3778 58.0093L84.7505 55.6441L89.6402 59.4319ZM33.6308 18.4475L83.8661 50.2784L80.4857 56.0995L59.7182 42.9393L57.946 36.6381C57.7821 36.0521 57.5431 35.4979 57.2255 34.979C56.908 34.46 56.529 33.9976 56.0851 33.5916C55.6412 33.1857 55.1529 32.8503 54.6168 32.5856C54.0841 32.3243 53.5241 32.1408 52.9368 32.0419C52.3529 31.9431 51.7656 31.929 51.1783 31.9996C50.591 32.0737 50.0208 32.229 49.4778 32.4655C48.9315 32.7056 48.4262 33.0162 47.9652 33.401C47.5076 33.7893 47.1047 34.2341 46.7667 34.7354L30.2537 24.2722L33.6308 18.4475ZM23.6533 3.59291H29.8235L31.2781 15.6129L26.7094 23.485L5.98288 33.3728L4.419 31.7595L23.6533 3.59291Z" fill="#0B2141"/>
<path d="M53.6299 40.8213C53.6299 41.0543 53.5855 41.2802 53.5001 41.4991C53.4114 41.7144 53.2884 41.9086 53.128 42.0745C52.9675 42.2404 52.7797 42.3675 52.5714 42.4557C52.3597 42.5475 52.1411 42.5934 51.9158 42.5934C51.687 42.5934 51.4685 42.5475 51.2568 42.4557C51.0485 42.3675 50.8641 42.2404 50.7036 42.0745C50.5397 41.9086 50.4168 41.7144 50.3314 41.4991C50.2426 41.2802 50.1982 41.0543 50.1982 40.8213C50.1982 40.5848 50.2426 40.3588 50.3314 40.14C50.4168 39.9246 50.5397 39.734 50.7036 39.5646C50.8641 39.3987 51.0485 39.2716 51.2568 39.1833C51.4685 39.0915 51.687 39.0457 51.9158 39.0457C52.1411 39.0457 52.3597 39.0915 52.5714 39.1833C52.7797 39.2716 52.9675 39.3987 53.128 39.5646C53.2884 39.734 53.4114 39.9246 53.5001 40.14C53.5855 40.3588 53.6299 40.5848 53.6299 40.8213Z" fill="#0B2141"/>
</svg>
