<svg width="96" height="110" viewBox="0 0 96 110" fill="none" xmlns="http://www.w3.org/2000/svg">
<path d="M31.6146 67.2717C31.1809 67.2717 30.7473 67.2293 30.3204 67.1411C29.8936 67.0528 29.4804 66.9257 29.0775 66.7527C28.6746 66.5798 28.2956 66.368 27.9336 66.1173C27.5717 65.8702 27.2337 65.5843 26.9263 65.2666C26.619 64.9489 26.3459 64.6029 26.1034 64.2287C25.861 63.8545 25.6561 63.4592 25.4888 63.0426C25.3215 62.6296 25.1986 62.1989 25.1132 61.7577C25.0278 61.3164 24.9834 60.8716 24.9834 60.4233C24.9834 59.9714 25.0244 59.5266 25.1098 59.0854C25.1951 58.6441 25.3215 58.217 25.4854 57.8004C25.6527 57.3839 25.8576 56.9885 26.0966 56.6143C26.339 56.2401 26.6156 55.8942 26.9229 55.5765C27.2302 55.2552 27.5649 54.9728 27.9268 54.7222C28.2853 54.4716 28.6678 54.2598 29.0707 54.0868C29.4736 53.9138 29.8868 53.7832 30.3136 53.6949C30.7404 53.6067 31.1707 53.5643 31.6077 53.5608C32.0414 53.5608 32.4716 53.6067 32.8984 53.6914C33.3253 53.7797 33.7418 53.9103 34.1448 54.0797C34.5477 54.2527 34.9301 54.461 35.2921 54.7116C35.654 54.9622 35.9886 55.2446 36.296 55.5624C36.6033 55.8801 36.8798 56.226 37.1223 56.6002C37.3647 56.9744 37.5696 57.3662 37.7369 57.7828C37.9042 58.1993 38.0306 58.6265 38.1159 59.0677C38.2013 59.509 38.2457 59.9538 38.2457 60.4056C38.2457 60.854 38.2047 61.3023 38.1193 61.7435C38.034 62.1848 37.9076 62.6155 37.7403 63.032C37.5764 63.4451 37.3715 63.8404 37.1291 64.2181C36.8867 64.5923 36.6135 64.9383 36.3062 65.256C35.9955 65.5772 35.6608 65.8596 35.2989 66.1103C34.937 66.3609 34.5545 66.5727 34.155 66.7457C33.7521 66.9187 33.3355 67.0493 32.9087 67.1375C32.4819 67.2293 32.0516 67.2717 31.6146 67.2717ZM31.6146 56.8473C31.3824 56.8473 31.1536 56.8685 30.9282 56.9144C30.6995 56.9603 30.4809 57.0273 30.2658 57.1191C30.0507 57.2109 29.8492 57.3203 29.6546 57.4545C29.4634 57.5851 29.2858 57.7369 29.1219 57.9063C28.958 58.0758 28.8112 58.2593 28.6814 58.457C28.5517 58.6547 28.4424 58.863 28.3536 59.0854C28.2649 59.3078 28.2 59.5337 28.1522 59.7667C28.1078 60.0032 28.0839 60.2397 28.0839 60.4798C28.0839 60.7163 28.1078 60.9563 28.1522 61.1893C28.1966 61.4223 28.2649 61.6518 28.3536 61.8742C28.439 62.093 28.5483 62.3048 28.678 62.5025C28.8044 62.7002 28.9512 62.8838 29.1151 63.0532C29.279 63.2227 29.4565 63.3744 29.6478 63.5086C29.8424 63.6392 30.0438 63.7522 30.259 63.844C30.4707 63.9357 30.6926 64.0028 30.918 64.0487C31.1468 64.0981 31.3755 64.1193 31.6077 64.1193C31.8365 64.1193 32.0653 64.0946 32.2941 64.0487C32.5194 64.0028 32.7414 63.9322 32.9531 63.8404C33.1682 63.7486 33.3697 63.6357 33.5643 63.5015C33.7555 63.3674 33.9331 63.2191 34.097 63.0497C34.2574 62.8802 34.4043 62.6931 34.5306 62.4955C34.6604 62.2942 34.7696 62.086 34.855 61.8636C34.9438 61.6447 35.0087 61.4152 35.053 61.1823C35.0974 60.9457 35.1213 60.7092 35.1213 60.4692C35.1213 60.2291 35.1043 59.9926 35.0599 59.7561C35.0189 59.5196 34.954 59.2901 34.8687 59.0642C34.7799 58.8418 34.674 58.63 34.5477 58.4288C34.4213 58.2276 34.2745 58.0405 34.1106 57.871C33.9501 57.6981 33.7726 57.5463 33.5779 57.4086C33.3867 57.2744 33.1819 57.1615 32.9701 57.0662C32.755 56.9744 32.5331 56.9038 32.3043 56.8544C32.0789 56.8085 31.8468 56.7838 31.6146 56.7802V56.8473ZM64.7087 67.2717C64.2716 67.2717 63.8414 67.2293 63.4146 67.1411C62.9878 67.0528 62.5746 66.9257 62.1717 66.7527C61.7687 66.5798 61.3863 66.368 61.0244 66.1173C60.6624 65.8702 60.3278 65.5843 60.0205 65.2666C59.7132 64.9489 59.4366 64.6029 59.1942 64.2287C58.9551 63.8545 58.7503 63.4592 58.5829 63.0426C58.4156 62.6296 58.2893 62.1989 58.2039 61.7577C58.1186 61.3164 58.0776 60.8716 58.0776 60.4233C58.0776 59.9714 58.1186 59.5266 58.2039 59.0854C58.2893 58.6441 58.4122 58.217 58.5795 57.8004C58.7468 57.3839 58.9483 56.9885 59.1907 56.6143C59.4332 56.2401 59.7063 55.8942 60.0137 55.5765C60.321 55.2552 60.6556 54.9728 61.0175 54.7222C61.3795 54.4716 61.7619 54.2598 62.1648 54.0868C62.5643 53.9138 62.9809 53.7832 63.4077 53.6949C63.8346 53.6067 64.2648 53.5643 64.6985 53.5608C65.1355 53.5608 65.5658 53.6067 65.9926 53.6914C66.4194 53.7797 66.836 53.9103 67.2355 54.0797C67.6384 54.2527 68.0209 54.461 68.3828 54.7116C68.7447 54.9622 69.0828 55.2446 69.3901 55.5624C69.6974 55.8801 69.974 56.226 70.2164 56.6002C70.4589 56.9744 70.6637 57.3662 70.8311 57.7828C70.9984 58.1993 71.1247 58.6265 71.2101 59.0677C71.2954 59.509 71.3398 59.9538 71.3398 60.4056C71.3398 60.854 71.2954 61.3023 71.2135 61.7435C71.1281 62.1848 71.0018 62.6155 70.8345 63.032C70.6672 63.4451 70.4657 63.8404 70.2233 64.2181C69.9808 64.5923 69.7042 64.9383 69.3969 65.256C69.0896 65.5772 68.755 65.8596 68.393 66.1103C68.0311 66.3609 67.6487 66.5727 67.2457 66.7457C66.8428 66.9187 66.4297 67.0493 66.0028 67.1375C65.576 67.2293 65.1424 67.2717 64.7087 67.2717ZM64.7087 56.8473C64.4765 56.8473 64.2477 56.8685 64.019 56.9144C63.7936 56.9603 63.5716 57.0273 63.3599 57.1191C63.1448 57.2109 62.9434 57.3203 62.7487 57.4545C62.5575 57.5851 62.3765 57.7369 62.2126 57.9063C62.0487 58.0758 61.9053 58.2593 61.7756 58.457C61.6458 58.6547 61.5366 58.863 61.4478 59.0854C61.359 59.3078 61.2907 59.5337 61.2463 59.7667C61.2019 60.0032 61.178 60.2397 61.178 60.4798C61.178 60.7163 61.1985 60.9563 61.2463 61.1893C61.2907 61.4223 61.3556 61.6518 61.4444 61.8742C61.5331 62.093 61.6424 62.3048 61.7687 62.5025C61.8985 62.7002 62.0453 62.8838 62.2092 63.0532C62.3731 63.2227 62.5507 63.3744 62.7419 63.5086C62.9331 63.6392 63.138 63.7522 63.3497 63.844C63.5648 63.9357 63.7868 64.0028 64.0121 64.0487C64.2409 64.0981 64.4697 64.1193 64.6985 64.1193C64.9307 64.1193 65.1594 64.0946 65.3882 64.0487C65.6136 64.0028 65.8321 63.9322 66.0472 63.8404C66.2623 63.7486 66.4638 63.6357 66.655 63.5015C66.8462 63.3674 67.0238 63.2191 67.1877 63.0497C67.3516 62.8802 67.4984 62.6931 67.6248 62.4955C67.7545 62.2942 67.8604 62.086 67.9491 61.8636C68.0379 61.6447 68.1028 61.4152 68.1472 61.1823C68.1916 60.9457 68.2121 60.7092 68.2121 60.4692C68.2155 60.2291 68.195 59.9926 68.154 59.7561C68.113 59.5196 68.0482 59.2901 67.9594 59.0642C67.874 58.8418 67.7682 58.63 67.6418 58.4288C67.5121 58.2276 67.3687 58.0405 67.2048 57.871C67.0409 57.6981 66.8633 57.5463 66.6721 57.4086C66.4809 57.2744 66.276 57.1615 66.0609 57.0662C65.8492 56.9744 65.6272 56.9038 65.3985 56.8544C65.1697 56.8085 64.9409 56.7838 64.7087 56.7802V56.8473ZM2.39256 109.88C2.01354 109.876 1.67549 109.753 1.38525 109.502C1.22477 109.361 1.09843 109.199 1.00623 109.008C0.910626 108.817 0.852578 108.616 0.835506 108.401C0.818433 108.189 0.842335 107.977 0.903797 107.776C0.96526 107.571 1.06087 107.384 1.19404 107.222L24.5942 78.4691C24.7273 78.3173 24.8878 78.1938 25.0688 78.1055C25.2498 78.0137 25.441 77.9608 25.6425 77.9467C25.8439 77.9361 26.0385 77.9608 26.2298 78.0243C26.421 78.0879 26.5951 78.1867 26.7488 78.3209C26.9024 78.455 27.0288 78.6139 27.1244 78.7974C27.22 78.981 27.278 79.1751 27.2985 79.3834C27.3224 79.5882 27.3054 79.7929 27.2507 79.9941C27.1995 80.1918 27.1107 80.3754 26.9878 80.5413L3.57742 109.347C3.26327 109.714 2.86718 109.89 2.39256 109.88ZM93.9307 109.88C93.4732 109.876 93.0907 109.7 92.7834 109.347L67.6828 80.6719C67.5223 80.5166 67.3994 80.3365 67.3106 80.1283C67.2253 79.92 67.1809 79.7047 67.1843 79.4787C67.1843 79.2528 67.2287 79.0339 67.3174 78.8292C67.4062 78.6209 67.5326 78.4409 67.6965 78.2891C67.8569 78.1373 68.0413 78.0243 68.2496 77.9537C68.4579 77.8831 68.673 77.8549 68.8882 77.8761C69.1067 77.8972 69.3116 77.9643 69.5028 78.0738C69.694 78.1832 69.8579 78.3279 69.9911 78.508L95.078 107.183C95.2829 107.419 95.4126 107.695 95.4604 108.009C95.5082 108.323 95.4707 108.627 95.3443 108.92C95.2214 109.213 95.0268 109.446 94.7707 109.619C94.5112 109.792 94.2278 109.88 93.9171 109.88H93.9307Z" fill="#0B2141"/>
<path d="M77.4144 91.1879H18.0621C17.8538 91.1879 17.6558 91.1491 17.4646 91.0679C17.2734 90.9832 17.1026 90.8667 16.9558 90.7149C16.809 90.5631 16.6963 90.3901 16.6178 90.1924C16.5392 89.9948 16.4983 89.7865 16.4983 89.5747C16.4983 89.3593 16.5392 89.1546 16.6178 88.9534C16.6963 88.7557 16.809 88.5827 16.9558 88.4309C17.1026 88.2791 17.2734 88.1626 17.4646 88.0814C17.6558 87.9967 17.8538 87.9579 18.0621 87.9579H77.4144C77.6227 87.9579 77.8242 87.9967 78.0154 88.0814C78.2066 88.1626 78.3739 88.2791 78.5207 88.4309C78.6676 88.5827 78.7803 88.7557 78.8588 88.9534C78.9407 89.1546 78.9783 89.3593 78.9783 89.5747C78.9783 89.7865 78.9407 89.9948 78.8588 90.1924C78.7803 90.3901 78.6676 90.5631 78.5207 90.7149C78.3739 90.8667 78.2066 90.9832 78.0154 91.0679C77.8242 91.1491 77.6227 91.1879 77.4144 91.1879ZM88.4606 104.249H7.16961C6.97498 104.232 6.79059 104.179 6.61645 104.087C6.4423 103.999 6.28865 103.879 6.15548 103.73C6.02572 103.582 5.92329 103.413 5.85158 103.226C5.78329 103.035 5.74573 102.841 5.74573 102.64C5.74573 102.438 5.78329 102.244 5.85158 102.054C5.92329 101.866 6.02572 101.697 6.15548 101.549C6.28865 101.4 6.4423 101.28 6.61645 101.192C6.79059 101.1 6.97498 101.047 7.16961 101.03H88.4606C88.6791 101.009 88.8908 101.037 89.0991 101.107C89.3074 101.182 89.4918 101.295 89.6557 101.446C89.8162 101.598 89.9425 101.778 90.0313 101.986C90.1201 102.195 90.1645 102.414 90.1645 102.64C90.1645 102.865 90.1201 103.084 90.0313 103.293C89.9425 103.497 89.8162 103.681 89.6557 103.833C89.4918 103.985 89.3074 104.097 89.0991 104.172C88.8908 104.242 88.6791 104.27 88.4606 104.249ZM66.9009 81.2331H29.4224C28.5176 81.2295 27.623 81.1377 26.7352 80.9577C25.8508 80.7741 24.9903 80.5023 24.1537 80.1458C23.3206 79.7857 22.5284 79.348 21.7772 78.8291C21.026 78.3101 20.3294 77.7206 19.6909 77.0605C19.0524 76.4004 18.4821 75.6802 17.9802 74.9036C17.4748 74.127 17.0514 73.308 16.7065 72.4431C16.3583 71.5818 16.0987 70.6922 15.9212 69.7744C15.7436 68.8601 15.6548 67.9352 15.6548 66.9997V25.7223C15.6548 24.7904 15.7436 23.862 15.9212 22.9477C16.0987 22.0299 16.3583 21.1403 16.7065 20.2789C17.0514 19.4141 17.4748 18.5951 17.9802 17.8185C18.4821 17.0419 19.0524 16.3252 19.6909 15.6616C20.3294 15.0015 21.026 14.4119 21.7772 13.893C22.5284 13.3741 23.3206 12.9364 24.1537 12.5763C24.9903 12.2197 25.8508 11.9479 26.7352 11.7679C27.623 11.5843 28.5176 11.4925 29.4224 11.489H66.9009C67.8058 11.4925 68.7004 11.5843 69.5882 11.7679C70.4726 11.9479 71.333 12.2197 72.1696 12.5763C73.0028 12.9364 73.795 13.3741 74.5462 13.893C75.2974 14.4119 75.9939 15.0015 76.6325 15.6616C77.271 16.3252 77.8412 17.0419 78.3432 17.8185C78.8451 18.5951 79.2719 19.4141 79.6168 20.2789C79.9617 21.1403 80.2246 22.0299 80.4022 22.9477C80.5797 23.862 80.6685 24.7904 80.6685 25.7223V66.9997C80.6685 67.9352 80.5797 68.8601 80.4022 69.7744C80.2246 70.6922 79.9617 71.5818 79.6168 72.4431C79.2719 73.308 78.8451 74.127 78.3432 74.9036C77.8412 75.6802 77.271 76.4004 76.6325 77.0605C75.9939 77.7206 75.2974 78.3101 74.5462 78.8291C73.795 79.348 73.0028 79.7857 72.1696 80.1458C71.333 80.5023 70.4726 80.7741 69.5882 80.9577C68.7004 81.1377 67.8058 81.2295 66.9009 81.2331ZM29.4224 14.7614C28.7225 14.7614 28.0327 14.8355 27.3464 14.9767C26.6601 15.1179 25.9976 15.3262 25.3523 15.6016C24.7069 15.8804 24.0923 16.2193 23.5118 16.6182C22.9313 17.0207 22.3952 17.4761 21.9001 17.9879C21.4084 18.4998 20.9679 19.054 20.5787 19.6541C20.1894 20.2542 19.8616 20.8861 19.5953 21.5533C19.3255 22.2205 19.1241 22.9089 18.9875 23.6184C18.8509 24.3244 18.7826 25.041 18.7826 25.7612V66.9997C18.7758 67.7234 18.8407 68.4435 18.9738 69.1566C19.107 69.8662 19.3085 70.5581 19.5714 71.2288C19.8377 71.8995 20.1655 72.5384 20.5514 73.1421C20.9406 73.7457 21.3811 74.307 21.8762 74.8189C22.3713 75.3343 22.9074 75.7932 23.4913 76.1992C24.0718 76.6016 24.6864 76.944 25.3352 77.2229C25.984 77.4982 26.6498 77.71 27.3396 77.8512C28.0259 77.9924 28.719 78.0666 29.4224 78.0666H66.9009C67.6009 78.0666 68.2941 77.996 68.977 77.8548C69.6633 77.7136 70.3292 77.5053 70.9745 77.2264C71.6199 76.9511 72.2345 76.6122 72.815 76.2133C73.3989 75.8108 73.935 75.3555 74.4301 74.8436C74.9252 74.3317 75.3657 73.7775 75.7549 73.1774C76.1442 72.5773 76.472 71.9419 76.7383 71.2747C77.0081 70.6075 77.2095 69.9191 77.3461 69.2131C77.4861 68.5035 77.5544 67.7869 77.5544 67.0633V25.7223C77.5544 25.0022 77.4827 24.2856 77.3461 23.5761C77.2095 22.87 77.0047 22.1817 76.7349 21.5145C76.4686 20.8473 76.1408 20.2154 75.7515 19.6153C75.3623 19.0152 74.9218 18.4574 74.4267 17.9491C73.9315 17.4372 73.3955 16.9818 72.8116 16.5794C72.2311 16.1805 71.6199 15.8416 70.9745 15.5627C70.3292 15.2874 69.6633 15.0791 68.977 14.9379C68.2907 14.7932 67.6009 14.7226 66.9009 14.7226L29.4224 14.7614Z" fill="#0B2141"/>
<path d="M60.4986 45.4803H35.8248C35.0838 45.4803 34.3497 45.4062 33.6224 45.2544C32.8951 45.1026 32.1882 44.8802 31.5019 44.5837C30.819 44.2871 30.1668 43.9235 29.5522 43.4964C28.9376 43.0657 28.3673 42.5786 27.8449 42.0349C27.3259 41.4913 26.8581 40.8982 26.4517 40.2558C26.042 39.6168 25.6971 38.939 25.4171 38.2295C25.1405 37.5199 24.9288 36.7857 24.7923 36.0338C24.6523 35.2783 24.5874 34.5194 24.5942 33.7498V26.0471C24.5737 25.8212 24.5976 25.6023 24.6693 25.387C24.7376 25.1717 24.8469 24.9811 24.9971 24.8151C25.144 24.6457 25.3181 24.5151 25.5196 24.4233C25.721 24.335 25.9293 24.2892 26.1513 24.2892C26.3698 24.2892 26.5781 24.335 26.7795 24.4233C26.981 24.5151 27.1551 24.6457 27.3054 24.8151C27.4522 24.9811 27.5615 25.1717 27.6298 25.387C27.7015 25.6023 27.7254 25.8212 27.7083 26.0471V33.7498C27.7083 34.304 27.7595 34.8477 27.8654 35.3878C27.9678 35.9279 28.1249 36.4538 28.3298 36.9622C28.5312 37.4705 28.7839 37.9541 29.0776 38.4131C29.3746 38.8684 29.7127 39.292 30.0883 39.6839C30.4639 40.0722 30.8736 40.4217 31.3175 40.7253C31.7614 41.0324 32.2292 41.2901 32.7209 41.5019C33.2126 41.7137 33.7214 41.8725 34.2438 41.982C34.7663 42.0914 35.2921 42.1444 35.8248 42.1444H60.4986C61.0312 42.1444 61.5571 42.0914 62.0795 41.982C62.6019 41.8725 63.1107 41.7137 63.6024 41.5019C64.0941 41.2901 64.5619 41.0324 65.0058 40.7253C65.4463 40.4217 65.8594 40.0722 66.2351 39.6839C66.6107 39.292 66.9487 38.8684 67.2458 38.4131C67.5394 37.9541 67.7921 37.4705 67.9936 36.9622C68.1984 36.4538 68.3521 35.9279 68.4579 35.3878C68.5638 34.8477 68.615 34.304 68.615 33.7498V26.4531C68.615 26.2378 68.656 26.033 68.7345 25.8353C68.8131 25.6376 68.9292 25.4611 69.0726 25.3093C69.2194 25.1576 69.3901 25.0411 69.5813 24.9599C69.7726 24.8787 69.9706 24.8363 70.1789 24.8363C70.3872 24.8363 70.5852 24.8787 70.7764 24.9599C70.9677 25.0411 71.1384 25.1576 71.2852 25.3093C71.432 25.4611 71.5447 25.6376 71.6233 25.8353C71.7018 26.033 71.7428 26.2378 71.7428 26.4531V33.7498C71.7496 34.5194 71.6813 35.2783 71.5413 36.0338C71.4013 36.7857 71.193 37.5199 70.913 38.2295C70.633 38.9426 70.2882 39.6168 69.8784 40.2558C69.4687 40.8982 69.0043 41.4913 68.4818 42.0349C67.9594 42.5821 67.3892 43.0692 66.7746 43.4964C66.1565 43.9271 65.5077 44.2871 64.8214 44.5837C64.1385 44.8802 63.4317 45.1026 62.7044 45.2544C61.9737 45.4062 61.2395 45.4803 60.4986 45.4803ZM48.1685 13.8895C47.9602 13.8895 47.7622 13.8507 47.5709 13.7695C47.3797 13.6883 47.209 13.5753 47.0622 13.4235C46.9153 13.2717 46.8027 13.0988 46.7241 12.9011C46.6456 12.7034 46.6046 12.4986 46.6046 12.2868V2.87561C46.6217 2.6744 46.6729 2.48377 46.7617 2.30374C46.847 2.1237 46.9631 1.96485 47.1066 1.82718C47.25 1.69303 47.4139 1.58713 47.5948 1.513C47.7792 1.4424 47.967 1.40356 48.1617 1.40356C48.3563 1.40356 48.5441 1.4424 48.7285 1.513C48.9095 1.58713 49.0734 1.69303 49.2168 1.82718C49.3602 1.96485 49.4763 2.1237 49.5616 2.30374C49.6504 2.48377 49.7016 2.6744 49.7187 2.87561V12.2868C49.7187 12.4986 49.6777 12.7034 49.5992 12.8975C49.5207 13.0952 49.4114 13.2682 49.2646 13.42C49.1177 13.5683 48.9504 13.6848 48.7626 13.7659C48.5714 13.8471 48.3734 13.8895 48.1685 13.8895Z" fill="#0B2141"/>
<path d="M57.8249 3.83941H38.4984C38.2901 3.83941 38.0921 3.80058 37.9008 3.71586C37.7096 3.63467 37.5389 3.51817 37.3921 3.36638C37.2452 3.21458 37.1326 3.04161 37.054 2.84392C36.9755 2.64271 36.9345 2.43796 36.9345 2.22263C36.9345 2.01082 36.9755 1.80255 37.054 1.60486C37.1326 1.40718 37.2452 1.2342 37.3921 1.08241C37.5389 0.930613 37.7096 0.81412 37.9008 0.729398C38.0921 0.648206 38.2901 0.609375 38.4984 0.609375H57.8249C58.0332 0.609375 58.2313 0.648206 58.4225 0.729398C58.6137 0.81412 58.7844 0.930613 58.9313 1.08241C59.0781 1.2342 59.1908 1.40718 59.2693 1.60486C59.3478 1.80255 59.3888 2.01082 59.3888 2.22263C59.3888 2.43796 59.3478 2.64271 59.2693 2.84392C59.1908 3.04161 59.0781 3.21458 58.9313 3.36638C58.7844 3.51817 58.6137 3.63467 58.4225 3.71586C58.2313 3.80058 58.0332 3.83941 57.8249 3.83941Z" fill="#0B2141"/>
</svg>
