<svg width="110" height="107" viewBox="0 0 110 107" fill="none" xmlns="http://www.w3.org/2000/svg">
<path d="M95.1679 11.0381L73.8507 20.3893M73.8507 20.3893C73.96 20.6364 74.0454 20.8976 74.1 21.1659L75.179 26.5422M73.8507 20.3893C73.1712 18.8819 71.522 18.0347 69.9001 18.4724C69.5655 18.5642 69.2513 18.7019 68.9577 18.889C68.6674 19.0796 68.4079 19.3091 68.1791 19.5774C67.9538 19.8456 67.7728 20.1457 67.6362 20.4705C67.4962 20.7988 67.4074 21.1377 67.3699 21.4907L66.7279 27.4353C66.4992 29.5251 66.8543 31.509 67.7865 33.38M65.2836 61.7336L76.0873 37.4467C76.4492 36.6347 77.0775 35.9817 77.8663 35.6075L94.2494 27.7954" stroke="#0B2141" stroke-width="4.86296" stroke-miterlimit="10" stroke-linecap="round" stroke-linejoin="round"/>
<path d="M57.809 57.2294L68.2474 32.2823C68.7288 31.1315 69.4117 30.1183 70.2893 29.2499C71.1668 28.3815 72.1741 27.7249 73.3112 27.2766L94.2494 19.0409M54.2237 70.5908H60.3494C61.5719 70.5908 62.7157 69.9695 63.4055 68.9281L65.3791 65.9452C65.5772 65.6486 65.7308 65.3239 65.8333 64.9779C65.9391 64.6284 65.9903 64.2754 65.9903 63.9118C65.9903 63.5482 65.9391 63.1917 65.8333 62.8458C65.7308 62.4998 65.5772 62.175 65.3791 61.875L63.4055 58.8921C63.0606 58.3696 62.6167 57.9636 62.0772 57.6706C61.5377 57.3741 60.9607 57.2294 60.3494 57.2294H54.2237M21.7818 80.362V72.963M44.2668 80.362V72.963M37.3728 53.8758V47.4581C37.3728 45.5342 35.8635 43.9774 34.006 43.9774H30.1817C28.9422 43.9774 27.9007 43.0278 27.7436 41.757L26.3368 30.2172C26.1354 28.5368 24.7491 27.2766 23.1135 27.2766H20.5799C19.8901 27.2766 19.3335 27.852 19.3335 28.5651V42.2477M38.2742 35.9818L42.2556 31.8657M40.2649 33.9238L45.2297 39.0565C45.6292 39.4695 45.858 40.0343 45.858 40.6239V53.8758M13.5868 42.2477V14.0247M44.8029 14.0247L51.8403 31.9398C52.2501 32.9812 52.4584 34.0932 52.4584 35.2158V53.8758M16.6019 6.40674H12.1254C11.9 6.40674 11.6815 6.45263 11.4698 6.54088C11.2615 6.63266 11.0771 6.75975 10.9166 6.92566C10.7561 7.09158 10.6332 7.2822 10.5444 7.49754C10.4591 7.71287 10.4147 7.9388 10.4147 8.17531V12.2561C10.4147 12.4891 10.4591 12.715 10.5444 12.9303C10.6332 13.1492 10.7561 13.3398 10.9166 13.5057C11.0771 13.6717 11.2615 13.7987 11.4698 13.887C11.6815 13.9788 11.9 14.0247 12.1254 14.0247H46.9541C47.2545 14.0247 47.5311 13.9364 47.7838 13.767C48.0331 13.5975 48.2175 13.3681 48.337 13.0857L50.2321 8.57068C50.6623 7.54696 49.9384 6.40674 48.8594 6.40674H24.1857" stroke="#0B2141" stroke-width="4.86296" stroke-miterlimit="10" stroke-linecap="round" stroke-linejoin="round"/>
<path d="M55.2959 89.5225C55.8832 90.2603 56.2349 91.1993 56.2349 92.23C56.2349 94.5881 54.3876 96.4944 52.1101 96.4944C49.8292 96.4944 47.9819 94.5881 47.9819 92.23C47.9819 91.1993 48.3336 90.2603 48.9209 89.5225M26.3164 51.5317L21.7682 43.416C21.5667 43.0524 21.2867 42.77 20.9385 42.5582C20.5868 42.3499 20.2077 42.2476 19.8048 42.2476H13.2386C13.0508 42.2476 12.8698 42.2829 12.6957 42.357C12.5215 42.4311 12.3713 42.537 12.2381 42.6747C12.1049 42.8124 12.0025 42.9712 11.9308 43.1477C11.8591 43.3278 11.8215 43.5149 11.8215 43.709V70.9825C11.8215 71.2437 11.8728 71.4979 11.9684 71.7414C12.0674 71.9815 12.204 72.1968 12.3849 72.3839C12.5625 72.5675 12.7708 72.7122 13.0064 72.811C13.2386 72.9134 13.4844 72.9628 13.7371 72.9628H52.3082C52.5608 72.9628 52.8067 72.9134 53.0423 72.811C53.2779 72.7122 53.4828 72.5675 53.6638 72.3839C53.8413 72.1968 53.9813 71.9815 54.0769 71.7414C54.1759 71.4979 54.2237 71.2437 54.2237 70.9825V55.3371C54.2237 55.1465 54.1896 54.9594 54.1179 54.7794C54.0462 54.5993 53.9437 54.4405 53.8106 54.3028C53.6774 54.1651 53.5238 54.0628 53.3496 53.9851C53.1755 53.911 52.9979 53.8757 52.8101 53.8757H30.2534C29.4442 53.8757 28.6861 53.6674 27.9827 53.2473C27.2793 52.8272 26.7262 52.2554 26.3164 51.5317Z" stroke="#0B2141" stroke-width="4.86296" stroke-miterlimit="10" stroke-linecap="round" stroke-linejoin="round"/>
<mask id="mask0_124_17" style="mask-type:luminance" maskUnits="userSpaceOnUse" x="0" y="78" width="66" height="29">
<path d="M0.512451 78.2371H65.772V106.252H0.512451V78.2371Z" fill="white"/>
</mask>
<g mask="url(#mask0_124_17)">
<path d="M52.1102 80.3621H13.5869C7.24605 80.3621 2.10712 85.6748 2.10712 92.2302C2.10712 98.7856 7.24605 104.098 13.5869 104.098H52.1102C58.451 104.098 63.59 98.7856 63.59 92.2302C63.59 85.6748 58.451 80.3621 52.1102 80.3621Z" stroke="#0B2141" stroke-width="4.86296" stroke-miterlimit="10" stroke-linecap="round" stroke-linejoin="round"/>
</g>
<mask id="mask1_124_17" style="mask-type:luminance" maskUnits="userSpaceOnUse" x="0" y="0" width="110" height="100">
<path d="M0.512451 0.518555H109.335V99.0223H0.512451V0.518555Z" fill="white"/>
</mask>
<g mask="url(#mask1_124_17)">
<path d="M16.7762 89.5225C17.4011 90.3062 17.7152 91.2099 17.7118 92.2301C17.7118 94.5882 15.8645 96.4945 13.587 96.4945C11.306 96.4945 9.45876 94.5882 9.45876 92.2301C9.45876 91.1993 9.81046 90.2603 10.3978 89.5225M36.0378 89.5225C36.6627 90.3062 36.9768 91.2099 36.9734 92.2301C36.9734 94.5882 35.1261 96.4945 32.8486 96.4945C30.5711 96.4945 28.7204 94.5882 28.7204 92.2301C28.7204 91.1993 29.0721 90.2603 29.6594 89.5225M2.41107 89.5225H63.2862M11.8216 63.4705H40.8763C42.085 63.4705 43.0616 62.4574 43.0616 61.2112V53.8757M94.2495 46.4731V13.9611C94.2495 13.2656 94.4066 12.5808 94.7139 11.9595L99.1324 2.9719C99.6104 1.99759 100.997 2.13527 101.284 3.18723L107.512 25.9316C107.891 27.3224 107.816 28.685 107.29 30.0194L103.407 39.8578C102.66 41.7569 102.284 43.7338 102.284 45.7848V71.6921M94.2495 69.2563V54.3135M93.7715 70.0365L90.0394 78.8511C89.6842 79.6948 89.1823 80.4326 88.5369 81.068L81.3015 88.1917C80.1644 89.3143 80.9293 91.2946 82.5034 91.2946H97.7666C98.6646 91.2946 99.5455 91.1711 100.409 90.9275C101.277 90.6804 102.093 90.3203 102.865 89.8473C103.636 89.3707 104.333 88.7989 104.954 88.1317C105.576 87.4645 106.102 86.7196 106.532 85.9042C108.977 81.2515 107.611 75.4375 103.373 72.4616L98.0943 68.748C96.5817 67.6819 94.5056 68.3032 93.7715 70.0365Z" stroke="#0B2141" stroke-width="4.86296" stroke-miterlimit="10" stroke-linecap="round" stroke-linejoin="round"/>
</g>
</svg>
