<svg width="110" height="115" viewBox="0 0 110 115" fill="none" xmlns="http://www.w3.org/2000/svg">
<path d="M47.2422 55.592L28.3834 65.4057C28.1615 65.5222 27.9874 65.6881 27.8576 65.9034C27.7313 66.1223 27.6664 66.3553 27.6664 66.6094V105.998H49.1305V56.7958C49.1305 55.7932 48.1095 55.1401 47.2422 55.592Z" stroke="#0B2141" stroke-width="4.89226" stroke-miterlimit="10" stroke-linecap="round" stroke-linejoin="round"/>
<path d="M20.547 71.5515H13.3184C13.1408 71.5515 12.9735 71.5868 12.813 71.6574C12.6491 71.7245 12.5057 71.8233 12.3828 71.9539C12.2564 72.081 12.1608 72.2293 12.0959 72.3987C12.0276 72.5647 11.9935 72.7412 11.9935 72.9212V81.2805C11.9935 81.4605 12.0276 81.637 12.0959 81.8029C12.1608 81.9724 12.2564 82.1206 12.3828 82.2477C12.5057 82.3748 12.6491 82.4736 12.813 82.5442C12.9735 82.6148 13.1408 82.6501 13.3184 82.6501H20.547C20.7246 82.6501 20.8919 82.6148 21.0558 82.5442C21.2163 82.4736 21.3597 82.3748 21.4826 82.2477C21.609 82.1206 21.7046 81.9724 21.7695 81.8029C21.8378 81.637 21.8719 81.4605 21.8719 81.2805V72.9212C21.8719 72.7412 21.8378 72.5647 21.7695 72.3987C21.7046 72.2293 21.609 72.081 21.4826 71.9539C21.3597 71.8233 21.2163 71.7245 21.0558 71.6574C20.8919 71.5868 20.7246 71.5515 20.547 71.5515Z" stroke="#0B2141" stroke-width="4.89226" stroke-miterlimit="10" stroke-linecap="round" stroke-linejoin="round"/>
<path d="M25.7748 55.592L6.91598 65.4057C6.69744 65.5222 6.5233 65.6881 6.39355 65.9034C6.26379 66.1223 6.19891 66.3553 6.19891 66.6094V105.998H27.6664V56.7958C27.6664 55.7932 26.6421 55.1401 25.7748 55.592Z" stroke="#0B2141" stroke-width="4.89226" stroke-miterlimit="10" stroke-linecap="round" stroke-linejoin="round"/>
<path d="M42.0145 71.5515H34.7824C34.6083 71.5515 34.4375 71.5868 34.2771 71.6574C34.1132 71.7245 33.9732 71.8233 33.8468 71.9539C33.7239 72.081 33.6283 72.2293 33.56 72.3987C33.4917 72.5647 33.461 72.7412 33.461 72.9212V81.2805C33.461 81.4605 33.4917 81.637 33.56 81.8029C33.6283 81.9724 33.7239 82.1206 33.8468 82.2477C33.9732 82.3748 34.1132 82.4736 34.2771 82.5442C34.4375 82.6148 34.6083 82.6501 34.7824 82.6501H42.0145C42.1887 82.6501 42.356 82.6148 42.5199 82.5442C42.6804 82.4736 42.8238 82.3748 42.9501 82.2477C43.073 82.1206 43.1686 81.9724 43.2369 81.8029C43.3052 81.637 43.336 81.4605 43.336 81.2805V72.9212C43.336 72.7412 43.3052 72.5647 43.2369 72.3987C43.1686 72.2293 43.073 72.081 42.9501 71.9539C42.8238 71.8233 42.6804 71.7245 42.5199 71.6574C42.356 71.5868 42.1887 71.5515 42.0145 71.5515Z" stroke="#0B2141" stroke-width="4.89226" stroke-miterlimit="10" stroke-linecap="round" stroke-linejoin="round"/>
<path d="M68.7097 55.592L49.8475 65.4057C49.629 65.5222 49.4548 65.6881 49.3251 65.9034C49.1953 66.1223 49.1305 66.3553 49.1305 66.6094V105.998H70.598V56.7958C70.598 55.7932 69.5736 55.1401 68.7097 55.592Z" stroke="#0B2141" stroke-width="4.89226" stroke-miterlimit="10" stroke-linecap="round" stroke-linejoin="round"/>
<path d="M63.4786 71.5515H56.2499C56.0724 71.5515 55.9051 71.5868 55.7412 71.6574C55.5807 71.7245 55.4373 71.8269 55.3143 71.9539C55.188 72.081 55.0924 72.2293 55.0275 72.3987C54.9592 72.5647 54.9251 72.7412 54.9251 72.9212V81.2805C54.9251 81.4605 54.9592 81.637 55.0275 81.8029C55.0924 81.9724 55.188 82.1206 55.3143 82.2477C55.4373 82.3748 55.5807 82.4736 55.7412 82.5442C55.9051 82.6148 56.0724 82.6501 56.2499 82.6501H63.4786C63.6562 82.6501 63.8235 82.6148 63.9874 82.5442C64.1479 82.4736 64.2913 82.3748 64.4142 82.2477C64.5406 82.1206 64.6362 81.9724 64.7011 81.8029C64.7693 81.637 64.8035 81.4605 64.8035 81.2805V72.9212C64.8035 72.7412 64.7693 72.5647 64.7011 72.3987C64.6362 72.2293 64.5406 72.081 64.4142 71.9539C64.2913 71.8233 64.1479 71.7245 63.9874 71.6574C63.8235 71.5868 63.6562 71.5515 63.4786 71.5515Z" stroke="#0B2141" stroke-width="4.89226" stroke-miterlimit="10" stroke-linecap="round" stroke-linejoin="round"/>
<path d="M102.658 66.6094H70.5979V105.998H103.849V67.845C103.849 67.6791 103.818 67.5237 103.76 67.3719C103.699 67.2201 103.614 67.086 103.501 66.973C103.388 66.8565 103.258 66.7683 103.115 66.7048C102.968 66.6412 102.815 66.6094 102.658 66.6094Z" stroke="#0B2141" stroke-width="4.89226" stroke-miterlimit="10" stroke-linecap="round" stroke-linejoin="round"/>
<path d="M96.5146 75.4133H77.9324C77.7856 75.4133 77.6422 75.445 77.5056 75.5015C77.369 75.5615 77.2495 75.6427 77.1437 75.7522C77.0412 75.8616 76.9593 75.9851 76.9012 76.1263C76.8466 76.2676 76.8159 76.4158 76.8159 76.5676V80.6096C76.8159 80.7649 76.8466 80.9096 76.9012 81.0508C76.9593 81.192 77.0412 81.3191 77.1437 81.425C77.2495 81.5345 77.369 81.6192 77.5056 81.6757C77.6422 81.7357 77.7856 81.7639 77.9324 81.7639H96.5146C96.6615 81.7639 96.8049 81.7357 96.9414 81.6757C97.078 81.6192 97.1975 81.5345 97.3034 81.425C97.4092 81.3191 97.4878 81.192 97.5458 81.0508C97.6005 80.9096 97.6312 80.7649 97.6312 80.6096V76.5676C97.6312 76.4158 97.6005 76.2676 97.5458 76.1263C97.4878 75.9851 97.4092 75.8616 97.3034 75.7522C97.1975 75.6427 97.078 75.5615 96.9414 75.5015C96.8049 75.445 96.6615 75.4133 96.5146 75.4133Z" stroke="#0B2141" stroke-width="4.89226" stroke-miterlimit="10" stroke-linecap="round" stroke-linejoin="round"/>
<path d="M93.7352 22.3597H80.7119C80.5651 22.3597 80.4217 22.3879 80.2851 22.4479C80.1485 22.5044 80.029 22.5891 79.9231 22.695C79.8207 22.8045 79.7388 22.928 79.6807 23.0692C79.6261 23.2104 79.5988 23.3587 79.5988 23.5105V27.556C79.5988 27.7078 79.6261 27.856 79.6807 27.9972C79.7388 28.1384 79.8207 28.262 79.9231 28.3714C80.029 28.4773 80.1485 28.5621 80.2851 28.6221C80.4217 28.6785 80.5651 28.7068 80.7119 28.7068H93.7352C93.882 28.7068 94.0254 28.6785 94.162 28.6221C94.2986 28.5621 94.4181 28.4773 94.5239 28.3714C94.6264 28.262 94.7083 28.1384 94.7664 27.9972C94.821 27.856 94.8483 27.7078 94.8483 27.556V23.5105C94.8483 23.3587 94.821 23.2104 94.7664 23.0692C94.7083 22.928 94.6264 22.8045 94.5239 22.695C94.4181 22.5891 94.2986 22.5044 94.162 22.4479C94.0254 22.3879 93.882 22.3597 93.7352 22.3597Z" stroke="#0B2141" stroke-width="4.89226" stroke-miterlimit="10" stroke-linecap="round" stroke-linejoin="round"/>
<path d="M77.6459 105.998H96.8017V99.9298H77.6459V105.998Z" stroke="#0B2141" stroke-width="4.89226" stroke-miterlimit="10" stroke-linecap="round" stroke-linejoin="round"/>
<path d="M96.5147 81.7639H77.9325C77.8334 81.7639 77.7378 81.7463 77.6456 81.7216V87.7898H96.8015V81.7216C96.7059 81.7498 96.6103 81.7639 96.5147 81.7639Z" stroke="#0B2141" stroke-width="4.89226" stroke-miterlimit="10" stroke-linecap="round" stroke-linejoin="round"/>
<path d="M77.6459 93.8582H96.8017M77.6459 93.8582V87.7899H96.8017V93.8582M77.6459 93.8582V99.9299H96.8017V93.8582" stroke="#0B2141" stroke-width="4.89226" stroke-miterlimit="10" stroke-linecap="round" stroke-linejoin="round"/>
<path d="M79.9949 43.7837H94.4523L93.8821 37.433H80.5652L79.9949 43.7837Z" stroke="#0B2141" stroke-width="4.89226" stroke-miterlimit="10" stroke-linecap="round" stroke-linejoin="round"/>
<mask id="mask0_123_12" style="mask-type:luminance" maskUnits="userSpaceOnUse" x="51" y="0" width="42" height="19">
<path d="M51.1895 0.956543H92.2738V18.074H51.1895V0.956543Z" fill="white"/>
</mask>
<g mask="url(#mask0_123_12)">
<path d="M85.308 6.7C84.8812 6.79885 84.451 6.56586 84.2529 6.1599C82.409 2.34386 77.4579 1.42251 74.4394 4.31366C74.0774 4.65961 73.5174 4.65608 73.1555 4.31366C70.7755 2.04733 67.0809 2.0438 64.701 4.31013C64.339 4.65608 63.7722 4.65961 63.4137 4.31366C59.5757 0.610583 52.9275 3.30758 52.9275 9.07929C52.9275 14.8545 59.5791 17.5515 63.4137 13.8485C63.7722 13.5025 64.339 13.506 64.701 13.8485C67.0809 16.1148 70.7755 16.1148 73.1555 13.8449C73.3365 13.6755 73.5516 13.5872 73.7974 13.5872C74.0433 13.5872 74.2584 13.672 74.4394 13.8449C76.5872 15.8889 79.8344 16.1183 82.2281 14.4027C82.59 14.1415 83.0783 14.152 83.4095 14.4556C86.0763 16.8914 90.5801 15.024 90.5801 11.0738C90.5801 8.13676 87.9304 6.0893 85.308 6.7Z" stroke="#0B2141" stroke-width="4.89226" stroke-miterlimit="10" stroke-linecap="round" stroke-linejoin="round"/>
</g>
<mask id="mask1_123_12" style="mask-type:luminance" maskUnits="userSpaceOnUse" x="0" y="103" width="110" height="12">
<path d="M0.284912 103.926H109.763V114.135H0.284912V103.926Z" fill="white"/>
</mask>
<g mask="url(#mask1_123_12)">
<path d="M58.7665 112.479H106.612C106.817 112.479 107.015 112.437 107.202 112.356C107.394 112.275 107.561 112.158 107.708 112.01C107.851 111.858 107.964 111.685 108.042 111.491C108.121 111.293 108.162 111.088 108.162 110.877V107.601C108.162 107.389 108.121 107.184 108.042 106.986C107.964 106.792 107.851 106.619 107.708 106.467C107.561 106.319 107.394 106.203 107.202 106.122C107.015 106.04 106.817 105.998 106.612 105.998H3.43988C3.235 105.998 3.03695 106.04 2.84574 106.122C2.65452 106.203 2.4872 106.319 2.34379 106.467C2.19696 106.619 2.08428 106.792 2.00575 106.986C1.92721 107.184 1.88965 107.389 1.88965 107.601V110.877C1.88965 111.088 1.92721 111.293 2.00575 111.491C2.08428 111.685 2.19696 111.858 2.34379 112.01C2.4872 112.158 2.65452 112.275 2.84574 112.356C3.03695 112.437 3.235 112.479 3.43988 112.479H51.2817" stroke="#0B2141" stroke-width="4.89226" stroke-miterlimit="10" stroke-linecap="round" stroke-linejoin="round"/>
</g>
<path d="M95.0429 50.325L93.0932 28.7067H81.3539L77.9324 66.6094H96.5146L95.7429 58.063" stroke="#0B2141" stroke-width="4.89226" stroke-miterlimit="10" stroke-linecap="round" stroke-linejoin="round"/>
</svg>
