<svg width="30" height="30" viewBox="0 0 30 30" fill="none" xmlns="http://www.w3.org/2000/svg">
<path d="M9.92438 3.06753C9.57287 3.41914 9.3754 3.89597 9.3754 4.39315C9.3754 4.89034 9.57287 5.36717 9.92438 5.71878L19.2056 15L9.92438 24.2813C9.58283 24.6349 9.39384 25.1085 9.39811 25.6002C9.40239 26.0918 9.59958 26.5621 9.94722 26.9097C10.2949 27.2573 10.7651 27.4545 11.2568 27.4588C11.7484 27.4631 12.222 27.2741 12.5756 26.9325L23.1825 16.3257C23.534 15.974 23.7315 15.4972 23.7315 15C23.7315 14.5028 23.534 14.026 23.1825 13.6744L12.5756 3.06753C12.224 2.71602 11.7472 2.51855 11.25 2.51855C10.7528 2.51855 10.276 2.71602 9.92438 3.06753Z" fill="white"/>
</svg>
