<svg width="51" height="51" viewBox="0 0 51 51" fill="none" xmlns="http://www.w3.org/2000/svg">
<path d="M25.5 13.8125C26.909 13.8125 28.2602 14.3722 29.2565 15.3685C30.2528 16.3648 30.8125 17.716 30.8125 19.125C30.8125 19.8226 30.6751 20.5135 30.4081 21.158C30.1411 21.8025 29.7498 22.3882 29.2565 22.8815C28.7632 23.3748 28.1775 23.7661 27.533 24.0331C26.8885 24.3001 26.1976 24.4375 25.5 24.4375C24.091 24.4375 22.7398 23.8778 21.7435 22.8815C20.7472 21.8852 20.1875 20.534 20.1875 19.125C20.1875 17.716 20.7472 16.3648 21.7435 15.3685C22.7398 14.3722 24.091 13.8125 25.5 13.8125ZM25.5 4.25C29.4451 4.25 33.2286 5.81718 36.0182 8.60679C38.8078 11.3964 40.375 15.1799 40.375 19.125C40.375 30.2812 25.5 46.75 25.5 46.75C25.5 46.75 10.625 30.2812 10.625 19.125C10.625 15.1799 12.1922 11.3964 14.9818 8.60679C17.7714 5.81718 21.5549 4.25 25.5 4.25ZM25.5 8.5C22.6821 8.5 19.9796 9.61942 17.987 11.612C15.9944 13.6046 14.875 16.3071 14.875 19.125C14.875 21.25 14.875 25.5 25.5 39.7587C36.125 25.5 36.125 21.25 36.125 19.125C36.125 16.3071 35.0056 13.6046 33.013 11.612C31.0204 9.61942 28.3179 8.5 25.5 8.5Z" fill="#F83545"/>
</svg>
