<svg width="874" height="237" viewBox="0 0 874 237" fill="none" xmlns="http://www.w3.org/2000/svg">
<g filter="url(#filter0_d_4_155)">
<g opacity="0.1">
<path d="M459.334 21.2997H460.839L460.744 22.8514C460.697 23.6977 460.65 24.4971 460.65 25.3434C460.65 38.0386 470.995 48.3828 483.69 48.3828C494.786 48.3828 504.331 40.4836 506.353 29.5751L506.635 28.0705L508.14 28.4937C515.945 30.6095 523.75 33.2426 531.414 36.3459L532.872 36.9101L532.167 38.2737C530.662 41.377 529.816 44.8563 529.816 48.3828C529.816 61.078 540.16 71.4222 552.855 71.4222C560.848 71.4222 568.136 67.3786 572.415 60.6078L573.214 59.2912L574.437 60.2316C580.785 64.8395 586.897 69.8236 592.539 74.9487L593.715 76.0301L592.492 77.1115C587.414 81.4843 584.499 87.8319 584.499 94.5087C584.499 107.204 594.843 117.548 607.538 117.548C613.087 117.548 618.4 115.573 622.585 111.906L623.807 110.871L624.7 112.188C629.073 118.629 633.023 125.259 636.455 131.889L637.161 133.252L635.75 133.864C627.334 137.484 621.926 145.807 621.926 154.975C621.926 167.671 632.271 178.015 644.966 178.015C647.364 178.015 649.715 177.686 652.019 176.933L653.476 176.463L653.852 177.968C655.874 186.29 657.332 194.283 658.319 202.465L658.507 203.922L657.05 204.063C645.248 205.286 636.361 215.113 636.361 227.244V228.702H580.832V227.244C580.832 157.185 523.844 100.151 453.739 100.151H452.281V21.1587H453.739C455.478 21.1587 457.265 21.1587 459.24 21.2057L459.334 21.2997Z" fill="white"/>
<path d="M215.398 225.88H216.856C217.467 213.326 227.905 203.311 240.601 203.311C240.93 203.311 241.259 203.311 241.588 203.311C240.695 210.599 240.224 218.169 240.224 225.833H243.093C243.14 218.263 243.61 210.787 244.503 203.593C255.365 205.38 263.828 214.596 264.345 225.833H265.803C265.239 213.89 256.305 204.016 244.691 202.183C245.538 194.895 246.901 187.466 248.641 180.131C250.757 180.695 252.92 180.93 255.082 180.93C269.376 180.93 281.037 169.269 281.037 154.975C281.037 145.336 275.536 136.309 266.978 131.936C269.988 126.247 273.326 120.604 276.946 115.15C281.46 118.582 286.82 120.416 292.557 120.416C306.851 120.416 318.511 108.755 318.511 94.4616C318.511 87.5498 315.737 80.873 310.8 76.0301C315.596 71.7043 320.815 67.5196 326.27 63.4289C331.16 70.2467 339.012 74.2433 347.381 74.2433C361.675 74.2433 373.336 62.5826 373.336 48.2887C373.336 44.8563 372.678 41.518 371.361 38.4147C377.85 35.7816 384.573 33.5247 391.438 31.5969C394.306 43.0226 404.745 51.2039 416.593 51.2039C430.887 51.2039 442.548 39.5431 442.548 25.2493C442.548 24.8261 442.548 24.45 442.548 24.0738C443.394 24.0738 444.194 24.0738 445.04 24.0738V97.2827C374.699 98.0821 317.289 155.54 316.537 225.833H319.405C320.204 156.386 376.909 100.151 446.498 100.151H447.955V21.1586H446.498C444.899 21.1586 443.253 21.1586 441.655 21.2056H441.514C439.586 9.21574 429.148 0 416.64 0C402.723 0 391.438 11.3316 391.438 25.2023C391.438 26.3307 391.532 27.4592 391.673 28.5407C391.626 28.5407 391.579 28.5407 391.532 28.5407C384.103 30.6095 376.721 33.1015 369.621 35.9697H369.527C365.201 28.2115 356.973 22.9454 347.522 22.9454C333.605 22.9454 322.32 34.277 322.32 48.1477C322.32 52.5675 323.495 56.7522 325.517 60.3727C325.517 60.3727 325.423 60.4197 325.423 60.4667C319.499 64.7924 313.762 69.4474 308.355 74.3374L308.261 74.4314C303.982 71.093 298.622 69.0712 292.745 69.0712C278.827 69.0712 267.543 80.4028 267.543 94.2735C267.543 101.42 270.552 107.909 275.348 112.47C275.348 112.517 275.254 112.564 275.254 112.611C271.21 118.629 267.496 124.883 264.204 131.09C264.204 131.09 264.204 131.137 264.157 131.184C261.383 130.149 258.421 129.538 255.318 129.538C241.4 129.538 230.115 140.87 230.115 154.74C230.115 165.508 236.839 174.676 246.337 178.297C246.337 178.297 246.337 178.344 246.337 178.391C244.503 185.961 243.046 193.766 242.058 201.571H240.93C227.435 201.571 216.386 212.245 215.727 225.598L215.398 225.88ZM439.821 21.3467H439.163L439.257 22.099C423.552 22.6162 408.271 24.9202 393.648 28.8228L393.554 28.1175L392.849 28.3056C392.708 27.3181 392.661 26.3308 392.661 25.3434C392.661 12.225 403.334 1.55161 416.452 1.55161C428.16 1.55161 437.94 10.1091 439.868 21.3467H439.821ZM393.883 30.2803C408.459 26.3778 423.693 24.1208 439.398 23.5566C439.445 24.1679 439.492 24.7791 439.492 25.3903C439.492 38.0855 429.148 48.4298 416.452 48.4298C405.685 48.4298 396.234 40.8127 393.93 30.2803H393.883ZM333.981 28.6817L345.783 48.3357C339.435 51.9092 333.275 55.8118 327.351 60.0435L327.022 59.3853L326.411 59.8084C324.577 56.423 323.448 52.5675 323.448 48.4298C323.448 40.2484 327.633 33.0075 333.934 28.7287L333.981 28.6817ZM367.929 36.722L367.317 37.0041L367.646 37.6624C360.594 40.6246 353.682 43.9159 347.052 47.6305L335.203 27.9764C338.73 25.8606 342.867 24.6381 347.24 24.6381C356.08 24.6381 363.838 29.5281 367.882 36.769L367.929 36.722ZM359.324 67.9898L347.757 48.8059C354.387 45.1384 361.205 41.8471 368.258 38.9319C369.621 41.8941 370.327 45.0444 370.327 48.3357C370.327 56.6111 365.907 63.8991 359.324 67.9427V67.9898ZM328.15 61.219C334.075 56.9873 340.187 53.0847 346.535 49.5112L358.102 68.695C354.857 70.4348 351.19 71.4222 347.287 71.4222C339.623 71.4222 332.476 67.6136 328.15 61.219ZM292.51 70.7169C297.917 70.7169 302.948 72.5506 306.945 75.6539L306.427 76.1711L306.992 76.6413C295.707 87.0325 285.598 98.7403 276.899 111.436L276.382 110.918L275.959 111.53C271.539 107.251 268.765 101.185 268.765 94.5556C268.765 81.4372 279.438 70.7639 292.557 70.7639L292.51 70.7169ZM277.981 112.376C286.679 99.6807 296.788 87.9729 308.12 77.5347C312.916 81.9075 315.596 88.067 315.596 94.4616C315.596 107.157 305.252 117.501 292.557 117.501C287.244 117.501 282.071 115.667 278.028 112.329L277.981 112.376ZM255.035 131.231C257.904 131.231 260.678 131.748 263.217 132.735L262.935 133.393L263.593 133.629C256.587 147.17 251.086 161.652 247.23 176.745L246.525 176.463L246.384 177.121C237.544 173.642 231.244 165.084 231.244 155.022C231.244 141.904 241.917 131.231 255.035 131.231ZM248.641 177.168C252.449 162.122 257.951 147.734 264.956 134.193C272.997 138.048 278.122 146.23 278.122 155.022C278.122 167.718 267.778 178.062 255.082 178.062C252.826 178.062 250.71 177.733 248.688 177.121L248.641 177.168Z" fill="white"/>
</g>
<path d="M79.6538 36.7695H42.7438V167.765H79.6538V36.7695Z" fill="white"/>
<path d="M203.408 36.769V122.391C203.252 137.155 203.017 145.493 202.703 147.405C201.292 157.42 196.261 163.157 186.952 165.555C181.685 166.918 142.895 167.764 142.895 167.764H79.6538V197.481H142.895C193.91 197.387 207.029 195.741 220.1 188.171C235.334 179.566 240.13 167.2 240.13 136.873V36.7219H203.408V36.769Z" fill="white"/>
<path d="M423.223 36.7695V66.6267H455.196V36.7695H423.223Z" fill="#F5304E"/>
<path d="M404.416 36.7695V66.5797H380.624V195.789H343.902V66.5797H269V36.7695H404.416Z" fill="white"/>
<path d="M577.54 36.7695H527.7L436.624 195.789H477.86L495.539 164.333H572.697L558.404 138.613H509.598L552.291 62.5831L627.146 195.836H667.159L577.493 36.8165L577.54 36.7695Z" fill="white"/>
<path d="M40.581 197.481H4V226.727H40.581V197.481Z" fill="#F83545"/>
<path d="M664.338 77.0652C665.184 85.8108 671.579 87.6445 674.87 87.6445C680.324 87.6445 685.402 83.4598 685.402 77.6294C685.402 70.2474 679.102 68.6017 672.989 66.6269C668.71 65.3574 659.542 62.6303 659.542 52.7092C659.401 43.3994 667.159 38.2273 675.152 38.2273C681.688 38.2273 689.211 41.8478 690.057 51.7688H684.227C683.568 48.3834 681.876 43.1643 674.917 43.1643C669.651 43.1643 665.325 46.6908 665.325 52.192C665.231 58.5866 670.45 60.1382 678.396 62.8654C683.38 64.7931 691.186 67.5673 691.186 77.2062C691.186 85.8107 684.697 92.6285 674.917 92.6285C666.124 92.6285 658.789 87.0803 658.46 77.0652H664.338Z" fill="white"/>
<path d="M700.683 91.6881H694.383L716.341 39.1206H722.03L743.753 91.6881H737.358L731.246 76.924H706.749L700.73 91.6881H700.683ZM718.927 45.7503L708.489 72.0811H729.459L718.927 45.7503Z" fill="white"/>
<path d="M749.536 91.6881V39.1206H757.765L777.231 83.2246L796.603 39.1206H804.831V91.6881H799.283L799.424 44.951L779.017 91.6881H775.256L754.802 44.951L754.943 91.6881H749.489H749.536Z" fill="white"/>
<path d="M858.433 52.756C856.787 50.4991 854.812 48.5713 852.555 47.0667C849.123 44.7158 845.032 43.3522 840.33 43.3522C828.811 43.3522 818.796 52.1448 818.796 65.3102C818.796 78.4756 828.858 87.4562 840.377 87.4562C845.926 87.4562 850.816 85.5284 854.436 82.7073C858.151 79.7921 860.69 75.7955 861.536 71.7048H835.393V66.8618H868.354C868.307 69.918 867.555 73.7736 866.003 77.018C861.442 86.892 850.957 92.6283 840.377 92.6283C825.049 92.6283 812.871 80.8265 812.871 65.2632C812.871 49.6998 825.237 38.1331 840.424 38.1331C851.098 38.1331 860.972 44.1045 865.062 52.709H858.386L858.433 52.756Z" fill="white"/>
<path d="M870 101.185H656.439V105.887H870V101.185Z" fill="#F5304E"/>
</g>
<defs>
<filter id="filter0_d_4_155" x="0" y="0" width="874" height="236.701" filterUnits="userSpaceOnUse" color-interpolation-filters="sRGB">
<feFlood flood-opacity="0" result="BackgroundImageFix"/>
<feColorMatrix in="SourceAlpha" type="matrix" values="0 0 0 0 0 0 0 0 0 0 0 0 0 0 0 0 0 0 127 0" result="hardAlpha"/>
<feOffset dy="4"/>
<feGaussianBlur stdDeviation="2"/>
<feComposite in2="hardAlpha" operator="out"/>
<feColorMatrix type="matrix" values="0 0 0 0 0 0 0 0 0 0 0 0 0 0 0 0 0 0 0.25 0"/>
<feBlend mode="normal" in2="BackgroundImageFix" result="effect1_dropShadow_4_155"/>
<feBlend mode="normal" in="SourceGraphic" in2="effect1_dropShadow_4_155" result="shape"/>
</filter>
</defs>
</svg>
