<svg width="51" height="51" viewBox="0 0 51 51" fill="none" xmlns="http://www.w3.org/2000/svg">
<g clip-path="url(#clip0_4_113)">
<path d="M23.1413 5.39316C23.7876 4.96184 24.5397 4.71595 25.316 4.68223C26.0923 4.64851 26.863 4.82825 27.5443 5.20191L27.8566 5.39316L44.8566 16.7258C45.3892 17.0807 45.8348 17.5513 46.1601 18.1025C46.4853 18.6537 46.6819 19.2712 46.7351 19.909L46.75 20.2618V40.3749C46.7503 41.4471 46.3454 42.4799 45.6163 43.2661C44.8873 44.0523 43.888 44.5339 42.8188 44.6143L42.5 44.6249H8.5C7.42778 44.6253 6.39505 44.2203 5.60884 43.4912C4.82263 42.7622 4.34104 41.7629 4.26063 40.6937L4.25 40.3749V20.2618C4.25001 19.622 4.39449 18.9904 4.67266 18.4142C4.95082 17.838 5.3555 17.332 5.8565 16.934L6.14338 16.7258L23.1413 5.39316ZM42.5 23.0944L27.268 33.2519C26.7444 33.6009 26.1293 33.7872 25.5 33.7872C24.8708 33.7872 24.2556 33.6009 23.732 33.2519L8.5 23.0923V40.3749H42.5V23.0944ZM25.5 8.92916L10.2064 19.1249L25.5 29.3207L40.7936 19.1249L25.5 8.92916Z" fill="#F83545"/>
</g>
<defs>
<clipPath id="clip0_4_113">
<rect width="51" height="51" fill="white"/>
</clipPath>
</defs>
</svg>
