<svg width="51" height="51" viewBox="0 0 51 51" fill="none" xmlns="http://www.w3.org/2000/svg">
<path d="M29.2572 8.42916C29.3142 8.22779 29.4127 8.03901 29.547 7.8736C29.6813 7.70819 29.8488 7.5694 30.0399 7.46515C30.231 7.3609 30.442 7.29324 30.6608 7.26603C30.8797 7.23882 31.102 7.2526 31.3152 7.30658C34.4297 8.07404 37.2713 9.61172 39.5473 11.7613C41.8233 13.9108 43.4514 16.5945 44.264 19.5359C44.3212 19.7373 44.3358 19.9473 44.3069 20.1539C44.2781 20.3606 44.2065 20.5599 44.0961 20.7404C43.9857 20.9209 43.8388 21.0791 43.6636 21.2059C43.4885 21.3327 43.2886 21.4258 43.0754 21.4796C42.9335 21.5149 42.7874 21.5329 42.6407 21.5332C42.2705 21.5332 41.9106 21.4177 41.6171 21.2046C41.3235 20.9916 41.1127 20.6929 41.0174 20.3551C40.3546 17.9539 39.0258 15.763 37.1679 14.0084C35.3101 12.2537 32.9903 10.9988 30.4479 10.3728C30.2345 10.3192 30.0344 10.2263 29.859 10.0996C29.6836 9.97284 29.5364 9.81467 29.4258 9.63415C29.3152 9.45362 29.2434 9.25428 29.2145 9.04751C29.1855 8.84075 29.2 8.63062 29.2572 8.42916ZM28.7678 16.7196C31.6638 17.4494 33.5244 19.2067 34.2972 21.9417C34.3926 22.2796 34.6034 22.5782 34.8969 22.7913C35.1905 23.0043 35.5503 23.1198 35.9206 23.1198C36.0673 23.1196 36.2134 23.1016 36.3553 23.0663C36.5685 23.0124 36.7684 22.9194 36.9435 22.7926C37.1187 22.6657 37.2656 22.5076 37.376 22.327C37.4864 22.1465 37.558 21.9473 37.5868 21.7406C37.6156 21.5339 37.601 21.3239 37.5439 21.1226C36.4687 17.3225 33.6588 14.6688 29.6352 13.6533C29.2046 13.5447 28.746 13.602 28.3603 13.8127C27.9745 14.0235 27.6932 14.3703 27.5782 14.7769C27.4632 15.1835 27.5239 15.6166 27.747 15.9809C27.9701 16.3452 28.3373 16.6109 28.7678 16.7196ZM45.9755 35.6308C45.6011 38.3183 44.2036 40.7852 42.0441 42.5707C39.8845 44.3562 37.1107 45.3383 34.2405 45.3334C17.5663 45.3334 4.00002 32.5209 4.00002 16.7731C3.99487 14.0625 5.03468 11.4427 6.92523 9.40317C8.81578 7.36364 11.4278 6.04379 14.2734 5.69015C14.993 5.60717 15.7217 5.7462 16.3507 6.0865C16.9798 6.42679 17.4754 6.9501 17.7637 7.5783L22.1989 16.9298V16.9536C22.4196 17.4345 22.5108 17.9595 22.4642 18.4817C22.4177 19.004 22.2349 19.5072 21.9322 19.9465C21.8944 20 21.8545 20.0496 21.8125 20.0992L17.4402 24.9941C19.0132 28.0128 22.3564 31.1425 25.5947 32.632L30.7062 28.5245C30.7563 28.4846 30.8089 28.4475 30.8637 28.4134C31.3284 28.1207 31.8631 27.942 32.4193 27.8935C32.9756 27.845 33.5358 27.9283 34.0494 28.1357L34.0767 28.1477L43.97 32.3345C44.6363 32.6058 45.1918 33.0735 45.5533 33.6676C45.9148 34.2618 46.0629 34.9505 45.9755 35.6308ZM42.6407 35.2342H42.6176L32.7474 31.0592L27.6338 35.1667C27.5843 35.2066 27.5325 35.2436 27.4784 35.2778C26.9949 35.5825 26.436 35.7634 25.8562 35.8031C25.2765 35.8427 24.6958 35.7396 24.1709 35.5039C20.2375 33.709 16.3167 30.0338 14.4141 26.3587C14.1622 25.8665 14.0491 25.3212 14.0859 24.7757C14.1227 24.2301 14.3081 23.7028 14.6241 23.2448C14.6596 23.191 14.6997 23.1399 14.7438 23.0921L19.1203 18.1912L14.7102 8.86946C14.7094 8.86155 14.7094 8.85357 14.7102 8.84566C12.6737 9.09655 10.8039 10.04 9.4509 11.4992C8.09792 12.9585 7.35457 14.8335 7.36008 16.7731C7.36786 23.5039 10.2024 29.9569 15.2418 34.7163C20.2812 39.4756 27.1138 42.1527 34.2405 42.16C36.293 42.1667 38.2778 41.4671 39.8238 40.1921C41.3698 38.917 42.3712 37.1539 42.6407 35.2322V35.2342Z" fill="#F83545"/>
</svg>
